<svg viewBox="0 0 229 40" fill="none" preserveAspectRatio="none" xmlns="http://www.w3.org/2000/svg">
<path fill-rule="evenodd" clip-rule="evenodd" d="M165.038 1.2977C164.906 1.16876 164.693 1.08974 164.364 1.0731C164.249 1.31434 164.89 1.35177 165.038 1.2977ZM159.044 0.969117C159.249 0.910887 159.577 0.877613 159.963 0.927524C160.111 0.944161 160.464 0.960799 160.505 1.0939C160.226 1.02735 159.405 1.11053 159.044 0.969117ZM161.564 1.01487C161.844 1.04398 162.205 1.02735 162.246 1.19372C162.024 1.13133 161.606 1.18124 161.564 1.01487ZM163.313 1.11053C163.494 1.10637 163.609 1.14381 163.576 1.26443C163.387 1.26859 163.272 1.23115 163.313 1.11053ZM143.484 0.303629C143.558 0.199646 143.928 0.199646 144.051 0.286992C143.985 0.449205 143.632 0.341063 143.484 0.303629ZM142.359 0.291151C142.54 0.212124 142.827 0.216284 143.139 0.241239C143.139 0.482479 142.54 0.332744 142.359 0.291151ZM138.303 0.207965C138.5 0.0582302 138.755 0.199646 139.149 0.162213C139.1 0.3577 138.558 0.170531 138.303 0.207965ZM136.899 0.174691C137.187 0.0790267 137.655 0.124779 138.098 0.145576C137.802 0.232921 137.277 0.307788 136.899 0.174691ZM135.848 0.166372C136.045 0.103983 136.349 0.083186 136.554 0.158053C136.431 0.349381 136.111 0.153894 135.848 0.166372ZM132.145 0.0540709C132.367 0.0041593 132.342 0.0790267 132.63 0.0790267C132.662 0.195487 132.071 0.220443 132.145 0.0540709ZM127.654 0.041593C128.015 0.0748674 128.302 0.0457523 128.573 0C129.345 0.0790267 129.912 0 130.667 0.0707081C130.339 0.145576 129.723 0.228762 129.329 0.0915046C129.189 0.137257 128.992 0.133098 128.828 0.158053C128.499 0.112301 127.637 0.141416 127.654 0.041593ZM112.907 1.84673C112.997 1.99646 112.439 1.96319 112.562 1.82593L112.907 1.84673ZM8.40789 8.76365C8.7199 8.79692 9.10581 8.55568 9.0976 8.89259C8.7938 8.7179 8.46536 9.0756 8.40789 8.76365ZM7.63607 8.81356C7.76744 8.63887 8.30936 8.82604 8.31757 8.99241C8.23546 8.84683 7.79208 8.90922 7.63607 8.81356ZM5.0825 14.1291C4.83618 14.0959 4.71302 13.9919 4.5488 13.9129C4.84439 13.6883 5.2303 14.046 5.50947 14.1042C5.41094 14.2706 5.10714 13.8671 5.0825 14.1291ZM5.87895 13.8921L6.43729 13.9212C6.39624 14.0501 5.78863 14.1042 5.87895 13.8921ZM5.05787 14.3122C4.06436 14.0876 2.47967 14.1458 1.73248 14.5492C1.0592 14.4078 0.804661 15.0068 0 14.9236C0.164217 14.7447 0.468017 14.6823 0.804661 14.6407C0.812872 14.5243 0.821083 14.4161 0.911402 14.3662C1.92954 14.1832 2.89021 13.9545 3.99867 13.8338C4.23679 13.9129 4.39279 14.046 4.51596 14.1874C4.69659 14.1541 5.07429 14.1208 5.05787 14.3122ZM8.90054 16.109C9.2536 16.163 9.44245 16.0591 9.66415 16.1506C9.54098 16.2587 8.86769 16.3128 8.90054 16.109ZM8.69527 16.0965C8.65421 16.2504 8.36683 16.2088 8.12051 16.2046C8.16977 16.0591 8.47357 16.1131 8.69527 16.0965ZM6.24023 20.0686C6.01854 20.3182 5.4602 20.5095 4.87723 20.3182C4.94292 20.2683 4.98397 20.1976 4.97576 20.0894C5.43557 20.0021 5.64084 20.0146 6.24023 20.0686ZM224.558 35.1461C224.755 35.1419 225.067 35.1211 225.469 35.1503C225.461 35.2958 225.272 35.3 225.1 35.3166C225.075 35.0837 224.517 35.3624 224.558 35.1461ZM226.011 35.3166C225.773 35.3166 225.584 35.3 225.535 35.196C225.617 35.1128 226.118 35.1503 226.011 35.3166ZM226.282 37.1051C226.29 37.2965 225.872 37.3214 225.707 37.2133C225.683 37.0095 226.044 37.1051 226.282 37.1051ZM223.466 37.7457C223.597 37.6957 223.663 37.6001 223.901 37.6292L223.885 37.7665L223.466 37.7457ZM169.537 36.8888C169.595 36.7225 170.432 36.8015 170.366 36.9803C169.898 36.9845 169.972 36.8223 169.537 36.8888ZM170.925 37.0136C171.023 36.8306 171.385 37.0802 171.631 36.9596C171.623 37.1509 171.147 36.9803 170.925 37.0136ZM224.394 39.8461C224.386 39.9875 224.123 40.0416 224.024 39.9667C224.106 39.8877 224.18 39.8128 224.394 39.8461ZM181.402 38.565C181.205 38.4486 180.671 38.5193 180.663 38.2905C180.991 38.2115 181.476 38.2822 181.402 38.565ZM9.75446 29.0735C9.85299 29.2898 9.34392 29.2898 9.24539 29.1858C9.27824 29.0402 9.54098 29.0735 9.75446 29.0735ZM136.973 36.4105C136.792 36.7641 136.004 36.5852 135.479 36.5644C134.633 36.527 133.878 36.423 133.114 36.3897C132.588 36.3648 131.932 36.4771 131.521 36.2566C131.858 36.0112 132.334 36.2234 132.72 36.2275C132.884 36.2317 133.04 36.161 133.221 36.161C134.346 36.1526 135.676 36.4022 136.973 36.4105ZM139.059 36.5727C139.428 36.4355 139.896 36.5519 140.389 36.6019C140.619 36.6268 140.865 36.5769 141.087 36.5935C141.21 36.6019 141.3 36.6975 141.423 36.7058C141.744 36.7308 142.244 36.5935 142.384 36.8514C141.505 36.8015 140.003 36.8722 139.059 36.5727ZM191.017 39.6964C190.836 39.8336 190.048 39.7796 189.9 39.634C189.687 39.6881 189.44 39.7504 189.276 39.6007C189.161 39.6631 188.989 39.6839 188.841 39.7172C188.028 39.5383 186.55 39.8627 186.074 39.3803C186.566 39.243 187.273 39.4427 187.691 39.3304C187.757 39.2264 187.149 39.2971 187.42 39.2222C187.437 39.06 187.962 39.268 188.184 39.2638C188.192 39.3387 188.11 39.3387 188.102 39.4011C188.373 39.4135 188.718 39.4801 188.742 39.2971C188.824 39.3137 188.8 39.3927 188.734 39.3886C189.596 39.5882 190.524 39.4135 191.017 39.6964ZM146.777 37.0885C145.956 37.1342 145.34 37.3006 144.839 36.8888C145.167 36.7849 145.586 36.918 145.956 36.9512C146.251 36.9762 146.727 36.8181 146.777 37.0885ZM186.443 39.2139C186.517 39.1265 186.764 39.1058 186.862 39.1889C186.846 39.3179 186.525 39.2804 186.443 39.2139ZM147.532 37.2216C147.475 37.3796 147.072 37.2632 146.826 37.2757C146.957 37.1842 147.327 37.101 147.532 37.2216ZM184.111 39.3179C184.095 39.1557 184.489 39.3096 184.547 39.2014C184.744 39.3096 184.3 39.3428 184.111 39.3179ZM142.852 37.0594C142.088 37.0011 141.144 37.0843 140.331 37.0136C140.233 37.0178 140.29 37.1509 140.175 37.1467C139.904 37.1384 140.159 37.1093 140.126 37.0053C139.773 36.9887 139.559 36.893 139.157 36.9055C140.069 36.814 141.276 36.9637 142.31 36.9845C142.86 36.997 143.419 36.9055 143.837 37.1134C143.575 37.3048 143.221 37.0885 142.852 37.0594ZM192.191 39.8087C192.084 39.713 191.616 39.817 191.649 39.6381C191.862 39.6756 192.183 39.6548 192.191 39.8087ZM152.155 37.8954C151.917 38.0534 151.629 37.9162 151.309 37.9411C150.858 37.9786 150.513 38.1657 149.963 38.0077C149.839 37.9703 149.782 37.8871 149.634 37.8496C149.232 37.7457 148.747 37.754 148.476 37.5543C147.516 37.5543 146.81 37.4462 146.03 37.467C146.342 37.259 146.728 37.4254 147.154 37.4337C147.918 37.4462 148.821 37.3339 149.519 37.5626C149.79 37.571 149.544 37.6042 149.568 37.7041C150.488 37.7457 151.334 37.8122 152.155 37.8954ZM143.328 37.2257C143.336 37.3755 142.515 37.3297 142.565 37.1842C142.918 37.205 143.008 37.2757 143.328 37.2257ZM144.084 37.3131C144.018 37.4711 143.468 37.3713 143.46 37.2341C143.747 37.2174 143.854 37.3006 144.084 37.3131ZM152.237 37.7623C151.9 37.7124 151.736 37.7956 151.539 37.7249C151.629 37.65 152.171 37.6791 152.237 37.7623ZM184.711 39.5841C184.489 39.6839 184.374 39.6132 184.079 39.5965C184.226 39.5383 184.563 39.4842 184.711 39.5841ZM128.327 36.5436C128.36 36.7225 127.99 36.5852 127.826 36.6102C127.851 36.4771 128.122 36.5395 128.327 36.5436ZM170.005 38.8271L170.35 38.8479C170.375 39.0434 169.956 38.981 170.005 38.8271ZM166.573 38.7314C166.565 38.8021 166.039 38.8063 166.163 38.6607C166.376 38.6399 166.409 38.7231 166.573 38.7314ZM149.478 37.937C149.453 38.0701 149.174 38.0035 148.977 38.0035C148.953 37.8247 149.322 37.9619 149.478 37.937ZM124.575 36.7599C124.263 36.7807 124.164 36.6767 123.885 36.6767C123.967 36.6185 124.632 36.5935 124.575 36.7599ZM110.805 37.4961C110.846 37.6666 110.526 37.546 110.378 37.5668C110.395 37.4503 110.616 37.4878 110.805 37.4961ZM85.8278 37.4337L85.3434 37.4046C85.409 37.363 85.8688 37.2424 85.8278 37.4337ZM13.7367 34.281C13.9338 34.098 14.098 34.3018 14.3607 34.3184C14.5085 34.0855 15.149 34.1063 15.1982 34.3641C14.7631 34.3766 14.0487 34.4723 13.7367 34.281ZM17.2263 34.9839C17.3413 34.8508 17.6861 34.9007 17.9407 34.8841C17.9324 35.0837 17.4398 35.0962 17.2263 34.9839ZM15.9454 35.1461C15.8797 35.3957 15.4446 35.117 15.1654 35.2418C15.1818 35.0546 15.773 35.0463 15.9454 35.1461ZM14.7466 35.1752C14.3689 35.4414 13.474 35.3249 12.8417 35.2584C13.3098 35.1295 14.2212 35.0879 14.7466 35.1752ZM31.8991 37.2341C32.0058 37.1301 32.285 37.1675 32.4738 37.1259C32.4574 37.2965 32.1454 37.2424 31.8991 37.2341ZM29.8874 38.1491C29.8792 38.278 29.6986 38.2739 29.5179 38.2697C29.5261 38.1366 29.7068 38.145 29.8874 38.1491ZM20.642 38.016C20.4614 38.0659 20.0098 38.1533 20.018 37.9328C20.2233 38.0451 20.445 37.8871 20.642 38.016ZM31.4639 39.5882C31.0944 39.7213 30.6018 39.7588 30.0434 39.7463C29.9613 39.5965 30.0598 39.555 30.2158 39.4759C30.4458 39.6423 30.963 39.505 31.4639 39.5882ZM226.57 35.9072C226.841 35.8532 227.235 35.8865 227.432 35.7658C226.964 35.7617 226.471 35.7284 226.315 35.7034C225.124 35.5287 222.85 35.5828 222.234 35.2459C222.669 34.8341 223.975 35.5204 224.427 35.0879C224.131 34.9797 223.482 35.0754 223.556 34.7593C223.983 34.8591 224.254 34.5222 224.829 34.6886C224.87 34.4764 224.698 34.3891 224.673 34.2144C223.86 34.1936 222.883 34.0564 222.218 33.6612C221.774 33.5073 221.364 33.761 221.192 33.42C221.43 33.2827 222.16 33.5697 222.472 33.3035C221.807 33.2744 220.838 33.133 220.403 33.0041L221.068 32.7628C221.044 32.2887 221.75 32.3802 222.119 32.2138C222.325 32.1847 222.292 32.2887 222.464 32.2803C222.85 32.2263 222.998 31.9892 223.548 32.0599C224.074 31.8103 224.451 31.4526 225.116 31.3071C225.264 30.991 225.272 30.7913 225.502 30.4877C226.233 30.2173 226.701 29.6517 227.415 29.2399C227.382 28.7075 227.908 28.6118 227.842 28.0503C228.236 27.8299 228.959 27.4514 228.606 26.9731C228.852 26.8732 228.795 26.5197 228.754 26.3284C228.557 26.2119 228.179 26.1953 228.163 25.9707C228.187 25.8209 228.581 25.9624 228.54 25.7586L228.351 25.6088C228.655 25.5839 228.475 25.4674 228.589 25.3426C228.68 25.509 228.844 25.3676 229.016 25.3177C228.926 25.0307 229.066 24.6855 228.787 24.8851C228.573 24.7686 228.819 24.5856 228.852 24.3777C228.581 24.2279 228.672 23.8785 228.368 23.7455C228.491 23.7496 228.581 23.7662 228.639 23.8078C228.729 23.5375 228.844 23.1299 228.442 23.0966C228.491 22.8429 228.335 22.6973 228.31 22.4852C228.516 22.4561 228.483 22.5601 228.655 22.5517C228.893 22.2564 228.532 22.1275 228.532 21.8447C228.803 21.9736 228.86 21.7615 228.918 21.5868C228.984 21.462 228.581 21.6034 228.647 21.4786C228.885 21.254 228.433 21.096 228.294 20.9462C228.557 20.9296 228.302 20.7632 228.409 20.5802C228.195 20.4055 227.982 20.4014 227.892 20.2267C227.957 20.1477 228.343 20.2891 228.187 20.1019C228.368 19.973 227.9 19.9771 227.916 19.9938C227.949 19.7858 227.9 19.9314 228.039 19.5778C227.982 19.4239 227.489 19.5154 227.358 19.4031C227.333 19.1078 227.473 18.8208 227.547 18.4798C227.153 18.2593 227.153 18.0805 226.775 17.8767C226.939 17.7893 226.734 17.7228 226.873 17.6479C226.553 17.7103 226.758 17.5315 226.685 17.4524C226.438 17.1696 225.946 16.9658 225.732 16.6538C225.486 16.7828 225.322 16.6538 225.092 16.7121C225.141 16.4417 224.78 16.396 224.739 16.1797C224.903 15.9884 225.198 15.8968 225.166 15.5516C224.837 15.3936 223.893 15.5807 223.868 15.248C224.55 15.2438 225.198 15.2064 225.716 15.0691C225.707 14.8861 225.437 14.8529 225.412 14.6782C225.092 14.699 224.771 14.7198 224.492 14.7697C224.386 14.5368 223.302 14.6491 223.482 14.387C223.991 14.2498 225.215 14.6657 225.79 14.466C225.379 14.1583 224.41 14.3912 224.303 13.9669C224.476 13.9295 224.681 13.9253 224.681 13.7548C223.934 13.7091 223.983 13.4595 223.244 13.4429C223.449 13.3181 223.096 13.2391 222.998 13.1476C223.515 13.2058 224.336 13.3222 225.018 13.2599C225.231 13.4096 225.625 13.4969 225.978 13.4512C225.757 12.611 223.482 13.0893 222.85 12.6734C222.76 12.1784 222.719 11.9164 222.579 11.4464C222.259 11.2883 222.259 11.5753 221.873 11.5005C221.75 11.2967 221.684 11.0637 221.38 10.9598C221.249 11.0138 221.265 11.176 221.068 11.176C220.83 11.0513 221.085 10.652 220.641 10.6395C220.403 10.6728 220.453 10.9306 220.313 11.0429C220.116 11.1053 219.878 11.1428 219.599 11.1428C219.541 11.0346 219.59 10.8599 219.508 10.7643C218.589 10.6229 218.088 10.3691 217.176 10.3109C216.971 10.3234 216.971 10.4856 216.799 10.523C216.093 10.5646 215.83 10.3483 215.436 10.2152C214.976 10.286 214.303 10.2485 213.605 10.2527C213.547 10.1695 213.399 10.1404 213.276 10.0946C211.938 10.2776 210.698 9.78684 209.31 9.83259C209.138 9.67038 208.621 9.70365 208.432 9.54976C208.571 9.36259 208.793 8.96745 209.212 8.89259C209.491 8.84267 210.066 9.00073 210.394 9.00489C211.24 9.00905 212.373 8.8094 213.235 8.73869C213.695 8.70126 214.13 8.70542 214.278 8.79692C214.689 8.564 215.657 8.76365 215.871 8.37267C217.045 8.42258 218.375 8.35188 219.599 8.29781C219.714 8.21878 219.837 8.14807 219.976 8.08568C222.218 8.09816 223.934 7.91931 226.134 8.18966C226.29 8.12727 226.405 8.03161 226.512 7.93179C225.929 7.65311 225.272 7.65311 224.377 7.58241C224.024 7.55329 223.696 7.46595 223.343 7.43267C222.678 7.37028 221.947 7.38692 221.249 7.32037C220.822 7.27878 220.411 7.17895 220.001 7.15816C218.86 7.09577 217.603 7.15816 216.585 6.97099C216.446 6.94603 216.388 6.87532 216.249 6.85869C215.904 6.81709 215.493 6.85037 215.132 6.7963C214.959 6.77134 214.82 6.68816 214.656 6.67568C213.908 6.62577 213.145 6.79214 212.496 6.55922C212.57 6.48019 212.669 6.42196 212.8 6.38869C213.703 6.4386 214.656 6.33046 215.485 6.25559C215.756 6.23063 215.904 6.26807 216.052 6.23895C216.364 6.17656 216.832 6.10585 216.93 5.91453C216.15 5.76063 215.764 5.10346 214.434 5.12426C214.278 4.99116 214.418 4.96621 214.262 4.83311C212.775 4.72497 211.421 4.30488 209.77 4.26328C209.663 4.25912 209.458 4.32983 209.335 4.33399C208.711 4.34647 208.013 4.09275 207.266 4.03452C206.806 4.00125 206.363 4.11771 205.928 4.10107C205.722 4.09275 205.517 3.98877 205.312 3.97213C205.164 3.95965 205.024 4.047 204.877 4.04284C204.622 4.03452 204.335 3.88895 204.056 3.85983C203.653 3.81408 203.193 3.90974 202.931 3.88895C202.011 3.83072 201.132 3.52709 200.172 3.46054C197.651 3.28169 194.416 3.16107 192.281 3.12364C191.041 3.09868 189.736 2.96558 188.521 2.86992C187.314 2.77425 186.23 2.69939 185.031 2.67859C184.645 2.67027 184.21 2.59124 183.849 2.61204C183.717 2.62036 183.611 2.69107 183.487 2.68691C182.978 2.67027 182.469 2.54549 181.968 2.51222C181.574 2.48726 181.213 2.50806 180.917 2.49974C179.546 2.46647 177.674 2.2585 176.525 2.2585C176.401 2.2585 176.352 2.30425 176.237 2.28762C175.966 2.24602 175.745 2.10045 175.49 2.06301C175.096 2.00062 174.685 2.10045 174.291 2.08797C173.741 2.07133 173.035 2.06301 172.551 1.99231C172.28 1.95487 172.05 1.8093 171.803 1.76354C171.073 1.63045 170.276 1.73443 169.586 1.54726C169.102 1.82177 168.182 1.48487 167.567 1.43912C167.271 1.63461 166.647 1.57222 166.368 1.51399C166.204 1.48487 166.384 1.72611 166.146 1.64292C165.924 1.64708 165.826 1.51814 165.662 1.61797C165.834 1.5223 165.555 1.49319 165.473 1.42248C165.407 1.30186 165.185 1.32266 165.054 1.40168C165.144 1.48071 165.415 1.45991 165.383 1.60549C165.112 1.73443 164.947 1.53062 164.693 1.51814C161.482 1.30186 157.229 1.06062 154.027 0.981595C152.106 0.935843 150.135 0.544868 148.641 0.827701C148.337 0.53655 147.286 0.860975 146.908 0.640532C147.122 0.353541 147.368 0.669647 147.893 0.648851C148.09 0.578143 147.926 0.511594 148.197 0.47832C148.394 0.449205 148.838 0.607258 148.838 0.420089C148.074 0.320266 147.261 0.395134 146.53 0.386815C146.136 0.382656 145.709 0.183009 145.406 0.420089C145.734 0.557346 146.621 0.324425 146.703 0.677966C144.979 0.727878 143.402 0.777789 141.834 0.366019C141.834 0.29531 141.858 0.207965 141.711 0.220443C141.12 0.183009 140.66 0.245399 140.027 0.174691C140.167 0.470001 141.497 0.12062 141.826 0.41593C140.216 0.686285 137.942 0.0915046 136.406 0.53655C135.364 0.199646 134.313 0.470001 133.344 0.320266C133.188 0.353541 133.122 0.449205 132.909 0.436727C131.488 0.158053 129.838 0.386815 128.294 0.278673C128.13 0.282832 128.146 0.432567 127.925 0.399293C126.356 0.320266 125.108 0.494957 123.507 0.390974C123.31 0.378496 123.655 0.524072 123.359 0.47416C122.99 0.47832 122.859 0.353541 122.612 0.29531C122.218 0.286992 122.013 0.407611 121.75 0.436727C121.471 0.461682 121.011 0.395134 120.625 0.420089C120.297 0.440886 120.133 0.432567 119.78 0.420089C119.312 0.403452 118.844 0.486638 118.367 0.482479C118.031 0.47832 117.686 0.41593 117.325 0.424249C116.832 0.436727 116.175 0.41593 115.896 0.623895C116.216 0.532391 116.462 0.694603 116.799 0.719559C117.226 0.578143 117.686 0.748674 118.195 0.748674C118.359 0.748674 118.523 0.686285 118.696 0.682125C119.722 0.65301 120.855 0.781949 121.652 0.611417C122.67 0.632214 123.228 0.790267 124.041 0.603099C124.361 0.940002 125.675 0.83602 126.135 0.673807C127.539 0.677966 128.261 0.732037 129.509 0.623895C129.715 0.761152 129.846 0.682125 130.043 0.840179C130.388 0.686285 130.766 0.811064 131.168 0.806904C131.513 0.806904 131.866 0.711241 132.161 0.719559C132.4 0.727878 132.671 0.811064 132.925 0.806904C133.081 0.802745 133.245 0.736196 133.426 0.740356C133.705 0.748674 133.968 0.827701 134.255 0.83186C134.419 0.83602 134.592 0.765311 134.756 0.765311C135.085 0.765311 135.397 0.848497 135.725 0.865135C136.259 0.89009 137.269 0.881772 137.761 0.881772C138.632 0.881772 139.625 1.04398 140.274 0.973276C140.438 0.956639 140.479 0.898409 140.635 0.898409C140.84 0.898409 141.07 0.977436 141.251 0.977436C141.62 0.985754 141.99 0.898409 142.384 0.898409C142.729 0.902568 143.098 0.956639 143.427 0.956639C144.215 0.95248 144.954 0.973276 145.66 1.03151C145.964 1.05646 146.268 1.08558 146.555 1.12717C146.292 1.23115 145.75 1.24779 145.66 1.03151C145.496 1.23115 145.233 1.09806 144.88 1.08142C144.387 1.28522 143.96 1.11885 143.542 1.10221C143.41 1.09806 143.238 1.17708 143.041 1.16876C142.918 1.16045 142.762 1.10221 142.63 1.09806C141.908 1.08974 141.505 1.36841 140.799 1.1854C140.881 1.1854 140.964 1.18124 140.947 1.10221C140.405 1.01071 139.888 1.17292 139.486 1.02319C139.412 1.10637 139.674 1.18956 139.461 1.2062C138.492 1.15213 137.466 1.20204 136.177 1.11885C136.201 1.06062 136.3 1.03151 136.119 1.02319C135.684 1.08974 135.257 1.16045 134.641 1.08142C134.707 0.998232 134.855 1.06062 134.731 0.948321C134.247 0.89009 133.902 0.944161 133.467 0.923365C133.434 1.01487 133.549 1.02319 133.59 1.06894C132.999 1.13133 132.449 1.0523 131.981 1.02735C131.57 1.00655 131.135 1.11053 130.782 1.05646C130.601 1.02735 130.429 0.910887 130.24 0.885931C129.37 0.77363 128.286 0.935843 127.366 0.869294C126.824 0.827701 126.225 0.848497 125.823 0.877613C125.642 0.89009 125.379 0.890091 125.191 0.890091C123.828 0.877613 122.867 0.856816 121.808 1.03151C121.471 0.777789 120.428 0.811064 120.124 1.03151C119.648 1.10637 119.164 0.998232 118.655 0.998232C117.85 0.998232 117.045 1.0939 116.265 1.0523C115.494 1.01487 114.697 0.915046 113.966 0.927524C113.794 0.931683 113.621 0.998232 113.465 0.994073C112.685 0.956639 111.922 0.815223 111.166 0.869294C110.033 0.948321 108.506 0.769471 107.176 0.790267C106.092 0.806904 104.795 0.711241 103.604 0.736196C103.062 0.748674 102.586 0.811064 102.134 0.702922C101.847 0.923365 101.297 0.648851 101.051 0.923365C102.225 0.948321 103.465 1.03567 104.893 1.08558C104.893 1.15629 104.869 1.24363 105.016 1.23115C105.854 1.17708 106.954 1.45991 107.554 1.13549C107.66 1.45991 108.572 1.15629 108.711 1.38505C107.907 1.44744 107.11 1.38089 106.33 1.34761C105.476 1.31434 104.458 1.47239 103.456 1.33098C103.185 1.29354 103.046 1.03983 102.709 1.15213C102.947 1.11885 102.931 1.23115 102.898 1.34761C100.164 1.28938 96.2638 1.29354 93.6445 1.26027C93.3243 1.25611 92.4786 1.09806 92.4375 1.38089C93.5131 1.21036 94.8104 1.53062 95.8696 1.42664C96.3869 1.6762 97.0848 1.4308 97.7663 1.43496C99.1129 1.44744 100.665 1.6554 101.905 1.47655C101.962 1.58885 102.274 1.55558 102.373 1.64292C101.946 1.71363 101.371 1.67204 101.018 1.80098C100.115 1.73443 99.2853 1.90912 98.4725 1.94239C98.1276 1.95487 97.7663 1.91328 97.4215 1.92992C95.0157 2.05885 92.4868 2.24602 90.1549 2.2793C89.3667 2.28762 88.874 2.31257 88.3403 2.22523C87.2729 2.41655 86.1316 2.34169 85.0231 2.3708C83.9968 2.39576 82.9047 2.52886 81.9194 2.4831C81.6731 2.47062 81.4186 2.39992 81.1558 2.39576C80.0392 2.36664 78.9307 2.47894 77.7812 2.48726C75.9912 2.50806 74.2177 2.78673 72.3538 2.65779C71.7216 2.85328 71.0647 2.68275 70.5967 2.69939C70.4407 2.70355 70.2436 2.79921 70.0876 2.81169C69.7756 2.83248 69.5047 2.76178 69.1844 2.76178C68.6507 2.76178 68.0678 2.89071 67.4848 2.90319C67.3698 2.91151 67.181 2.86992 67.025 2.87824C66.9347 2.8824 66.9511 2.9531 66.8772 2.96142C66.3681 3.01133 65.1037 2.90319 64.5782 2.83664C64.2087 3.08204 63.1741 3.03629 62.5337 2.91151C62.1313 3.10284 61.3924 3.04877 60.8997 3.05293C59.6352 3.06956 58.5104 3.14027 57.3773 3.18602C57.0078 3.1985 56.6219 3.23178 56.4577 3.22762C56.3427 3.22762 56.1785 3.15275 56.0471 3.15691C55.6202 3.17355 55.2014 3.26089 54.7662 3.27337C54.2818 3.29001 53.7891 3.2193 53.2965 3.2401C52.7464 3.26505 52.1798 3.37319 51.5968 3.38151C50.3242 3.39815 48.9283 3.50629 47.9266 3.55204C47.007 3.5978 45.9478 3.51045 45.0446 3.62691C44.2399 3.73089 43.0904 3.77665 42.1462 3.79744C41.555 3.80992 40.8489 3.76417 40.3234 3.78912C39.9621 3.80576 39.6337 3.9139 39.256 3.91806C37.9915 3.9347 37.1622 4.047 36.0702 4.11771C34.9371 4.18842 33.7465 4.20921 32.6134 4.25496C32.2603 4.26744 31.9565 4.33815 31.6199 4.34231C31.0862 4.34231 30.8727 4.39222 30.5525 4.4255C29.7889 4.50036 28.9021 4.40886 28.0892 4.47541C27.9743 4.50452 28.081 4.70417 27.8593 4.6501C27.5555 4.63762 27.7937 4.49205 27.3092 4.52532C27.0875 4.59603 27.4816 4.67921 27.2846 4.71249C26.9069 4.79567 26.8658 4.65842 26.521 4.62514C26.2746 4.62514 26.7509 4.7624 26.5046 4.7624C26.1597 4.82895 26.1925 4.6501 25.7409 4.67505C25.47 4.81231 25.2894 4.70001 24.9527 4.77488C25.0841 4.78736 25.1826 4.81647 25.2237 4.88302C24.9117 4.84559 24.6982 4.87886 24.4518 4.88718C24.4354 4.75824 24.7146 4.85806 24.7474 4.7624C23.6636 4.68753 22.1035 4.83311 20.9376 4.92877C20.5763 4.95789 20.0426 4.86638 19.862 5.10346C21.11 5.21576 22.2103 4.94541 23.171 5.00364C22.1939 5.15753 20.9951 5.18249 20.2643 5.26568C19.706 5.32806 19.3776 5.37798 18.8521 5.37382C18.4579 5.51107 17.719 5.63169 17.1524 5.46948C17.0703 5.55683 17.0046 5.66081 16.8486 5.68576C14.681 5.75231 12.7186 5.97692 10.8137 6.24311C10.7972 6.29718 10.8055 6.37621 10.7233 6.37621C9.9351 6.42612 9.53277 6.50931 8.67885 6.45108C8.17798 6.73807 7.283 6.70895 6.78214 7.0001C6.15812 6.95435 5.35346 7.19975 4.71302 7.30373C4.77049 7.41603 5.04966 7.22055 5.12356 7.37444C5.06608 7.56993 4.78691 7.58657 4.46669 7.56993C4.50774 7.82781 5.00039 7.50754 4.93471 7.7363C4.59806 7.88188 3.99867 7.81117 3.77698 8.04409C4.79512 8.11064 6.04317 7.81949 7.04489 7.71134C7.29943 7.91931 7.78387 7.62816 8.30936 7.73214C8.53105 7.75294 8.49821 7.91515 8.70348 7.94011C9.03191 7.91099 9.33571 7.86108 9.76268 7.90683C10.0665 8.08984 9.7791 8.28533 9.76268 8.46418C9.56562 8.53073 9.27003 8.51825 9.11402 8.61391C9.6313 8.55984 10.2143 8.63471 10.5673 8.7886C10.5016 8.95498 10.5838 9.03816 10.6659 9.12135C11.2406 9.11719 11.4869 8.79692 12.0124 9.00905C11.9221 9.12551 11.7415 9.1671 11.6922 9.32099C12.3491 9.37922 12.8335 8.8094 13.3344 9.08391C13.0552 9.30436 12.6036 9.38754 12.0371 9.38338C11.6758 9.55807 11.257 9.68701 10.8629 9.83259C10.8137 10.0322 11.2324 9.96984 11.1749 10.1778C10.9532 10.0863 10.8301 10.157 10.6741 10.2444C11.1996 10.2652 10.9204 10.5355 11.1093 10.6852C10.7972 10.6936 11.0189 10.8267 10.9368 10.9098C10.8054 11.0471 10.4442 11.122 10.1404 11.1469C9.54919 11.1885 8.66242 10.9764 8.37504 11.2343C8.90875 11.3632 9.4753 11.0055 9.75446 11.4048C9.07297 11.5171 8.04661 11.3507 7.55396 11.6086C8.20262 11.9414 9.92689 11.6045 10.7398 11.9705C9.81194 12.0204 9.10581 12.2491 8.04661 12.1951C7.83313 12.2325 7.84134 12.4405 7.46364 12.349C7.37332 12.5278 7.84955 12.3906 7.79208 12.5528C7.55396 12.9937 6.11707 12.4945 5.97748 13.0145C6.03496 13.0269 6.05138 13.056 6.03496 13.1101C6.42087 13.1975 7.18448 12.9479 7.26658 13.3638C6.81499 13.4969 6.3716 13.343 5.98569 13.4803L6.68361 13.5177C6.62614 13.6675 6.33876 13.6383 6.18275 13.7257C6.30592 13.8837 6.87246 13.7964 7.06952 13.9129C7.00384 14.0501 7.01205 13.996 7.04489 14.1416C6.46192 14.2082 6.28128 14.5908 5.96927 14.8737C6.20739 14.8861 6.45371 14.8861 6.5194 14.9984C6.38802 15.169 5.94464 15.0941 5.72295 15.1898C5.64084 15.4768 6.07601 15.4352 5.61621 15.51C6.24023 15.7305 7.00384 15.4684 7.70997 15.6265C7.24195 15.6307 7.01205 15.822 6.56045 15.8428C7.02026 15.9343 7.79208 15.9093 8.05482 15.6889C8.21083 15.7679 7.89882 15.8303 8.17799 15.8345C9.33571 15.8761 10.1157 15.9717 10.9861 15.8012C11.0354 15.9176 11.2817 15.9218 11.2324 16.0965C11.1093 16.0258 10.9122 16.0715 10.8137 16.0715C10.6412 16.0757 10.3867 16.0216 10.3128 16.1381C10.5016 16.2878 11.0928 15.9842 11.216 16.2338C11.1175 16.5207 10.5016 16.4792 10.1322 16.4999C8.71169 16.5748 6.74109 16.4667 5.41094 16.6622C5.27956 16.8493 5.77221 16.6913 5.74758 16.8202C5.50125 16.8161 5.28777 16.8327 5.3042 17.0282C5.3863 17.3443 6.15812 17.0656 6.40445 17.2278C5.74758 17.2029 5.35346 17.3859 5.02503 17.6188C5.10714 17.6313 5.22209 17.623 5.2303 17.677C5.00039 17.7519 4.61449 17.7061 4.44206 17.8226C4.63912 17.8725 4.38458 17.9682 4.40921 18.0555C4.97576 18.5713 6.12528 18.1637 6.64256 18.1761C5.89537 18.4299 3.92478 18.4839 4.68017 19.2825C4.91829 19.3324 4.95934 19.2285 5.17282 19.2617C5.0825 19.4988 5.41915 19.4988 5.47662 19.6527C5.29598 19.7359 4.97576 19.6985 4.89365 19.8523C6.19096 19.79 8.07945 19.7359 9.60667 19.7816C9.95152 19.6569 10.477 19.6444 10.9615 19.6236C11.2817 19.6111 11.684 19.5154 11.799 19.6693C11.6594 19.8815 11.3884 19.9938 11.0518 20.0478C10.8958 20.1643 10.8383 20.3556 10.5263 20.3431C10.3292 20.7092 10.8137 21.1293 10.7972 21.5244C10.789 21.6575 10.3703 21.462 10.3703 21.5951C10.7233 21.566 10.8876 21.828 11.0107 22.0526C10.9204 22.1358 10.8137 22.2065 10.7644 22.3188C10.789 22.3937 10.9779 22.3687 10.8793 22.5101C10.5673 22.872 10.8958 23.1091 10.6905 23.4793C10.7233 23.6165 11.0189 23.6082 11.0764 23.733C10.9532 23.8453 10.8137 23.8827 10.6823 24.0824C10.904 24.3569 10.9286 24.544 10.592 24.8227C10.6905 24.9267 10.7972 25.0265 10.8301 25.1638C10.7972 25.4133 10.477 25.6005 10.3949 25.8417C10.3621 25.9332 10.5099 25.9457 10.5099 26.0331C10.5099 26.0372 10.3621 26.137 10.3539 26.1662C10.3292 26.2493 10.4278 26.2743 10.4031 26.3533C10.2882 26.6403 9.86942 26.8774 10.1075 27.0355C10.2635 27.1935 10.4934 27.0521 10.6494 27.1602L10.6248 27.3932C10.4113 27.3765 10.2882 27.4306 10.124 27.4597C10.2143 27.6178 10.2553 27.938 9.78731 27.9089C9.91868 28.1169 10.2471 28.1543 10.0008 28.4787C10.2882 28.5203 10.5427 28.5786 10.8219 28.616C11.2406 28.9529 10.6166 29.1484 10.592 29.348C10.9779 29.5061 11.9468 29.3979 12.308 29.6766C12.0289 29.8305 11.4295 29.7307 11.0271 29.7931C10.9697 30.0094 10.9697 30.1175 10.7562 30.2922C10.9532 30.3088 11.0436 30.3879 11.0107 30.5376C10.9779 30.6665 10.7398 30.6291 10.6412 30.704C10.7233 30.7747 10.9779 30.7414 10.9697 30.862C10.9861 31.0076 10.7644 30.9743 10.7316 31.0825C10.8301 31.1116 11.101 31.0492 11.0764 31.149C10.8876 31.2571 10.4688 31.1781 10.2882 31.2946C10.6659 31.3279 10.9615 31.4027 11.1749 31.5275C10.8301 31.6065 10.6412 31.8062 10.3621 31.8561C10.2964 31.8686 10.2307 31.7895 10.1568 31.8436C9.97616 31.9725 10.1157 32.1888 9.80373 32.4301C10.7972 32.559 12.0946 32.5049 12.9649 32.3718C14.1883 32.6838 15.6088 32.3053 16.824 32.3968C16.4709 32.9541 15.0669 32.6547 14.0405 32.7545C13.6957 32.7878 13.4411 32.9209 13.1784 32.9417C13.2851 33.3035 14.3197 32.9167 14.4018 33.2411C14.6563 33.2411 14.9848 33.1247 15.1736 33.237C15.3296 33.1704 15.9208 33.0872 15.9454 33.2328C15.8633 33.4533 15.4528 33.4491 15.2147 33.4741C14.9601 33.499 14.5906 33.4574 14.2376 33.4657C14.0898 33.6404 13.5889 33.5364 13.4986 33.7527C14.1473 33.811 14.6071 33.7236 15.1736 33.8442C15.773 33.5739 16.1589 33.9233 16.9143 33.9856C16.4873 34.1229 15.7894 34.0522 15.4774 34.281C15.5842 34.464 15.7566 34.3267 15.9619 34.3059C16.2985 34.5014 16.2657 34.4224 16.6269 34.5763C15.7155 34.7426 14.6727 34.6179 13.8024 34.7011C13.5971 34.7218 13.2441 34.726 13.1455 34.8965C13.3344 35.1128 13.6382 34.9839 13.9091 34.9839C14.6481 34.988 15.5185 35.0088 16.2985 34.9298C17.1688 34.8383 18.3348 34.4889 19.2051 34.6678C18.655 34.6927 18.3266 34.8965 18.031 35.117C18.1459 35.2126 18.3676 35.2459 18.499 35.3291C18.4415 35.4539 18.1952 35.4289 18.187 35.5911C18.2855 35.6494 18.4662 35.666 18.5154 35.7492C18.0885 35.6743 18.1049 35.9322 17.8586 35.9904C18.5401 36.0819 19.2626 35.9447 19.747 36.0487C19.2544 36.3273 18.3184 36.1152 17.6122 36.3065C17.8011 36.3565 18.0967 36.3481 18.228 36.4313C18.1952 36.4937 18.1213 36.5145 18.1377 36.6143C17.9817 36.5436 17.9324 36.4147 17.5958 36.4438C17.4891 36.7183 18.0146 36.6393 18.1131 36.7973C17.9653 36.8972 17.5958 36.8348 17.3987 36.8972C17.292 37.0926 17.1853 37.1966 17.1935 37.3963C17.9078 37.675 18.5154 37.4212 19.2298 37.4129C20.4532 37.4046 21.4138 37.2382 22.3909 37.3547C21.6027 37.4212 20.6667 37.6209 19.8456 37.4961C19.862 37.6458 19.5007 37.4961 19.5418 37.6666C20.7406 37.9453 22.1939 37.4171 23.4173 37.5543C23.7293 37.4171 24.6325 37.4046 24.9527 37.5918C25.0759 37.5211 25.3386 37.5543 25.4618 37.4795C26.718 37.5502 27.9332 37.1509 29.3619 37.18C30.6018 36.8472 32.638 36.868 34.1653 36.9304C33.5823 36.9013 33.2046 37.1093 32.8105 37.0885C33.2539 37.155 32.5477 37.4836 32.3342 37.5294C31.8498 37.4711 31.4557 37.4379 31.1929 37.6542C31.5132 37.6209 31.9401 37.4836 32.1782 37.6583C31.9155 37.7748 31.3982 37.6916 31.2422 37.8871C31.6774 37.8912 31.973 37.9827 31.9073 38.1574C31.546 38.2115 31.2422 38.2323 31.2422 38.4486C30.7906 38.4652 30.5114 38.6025 30.2405 38.6274C30.4458 38.6857 30.0352 38.6607 30.0845 38.7605C30.3883 38.8104 30.4868 38.7023 30.7906 38.7522C31.3079 38.9976 32.0633 38.8354 32.6463 39.0392C32.4081 39.0018 32.285 39.0558 32.2111 39.1557C32.5806 39.2139 32.8515 39.3096 33.1717 39.3844C33.2867 39.1931 33.8122 39.322 34.0914 39.2596C33.8615 39.3595 33.492 39.347 33.1964 39.3927C33.4016 39.4385 33.6316 39.4759 33.9271 39.4842C33.5166 39.5716 32.8433 39.8212 32.5888 39.505C32.6955 39.5009 32.8433 39.5383 32.8762 39.4759C32.4081 39.5175 32.4656 39.3595 32.3342 39.3054C32.0304 39.2929 31.7923 39.322 31.6856 39.4593C31.8252 39.5758 31.4557 39.6215 31.7923 39.6964C31.4064 39.8544 30.6839 39.7421 30.3554 39.9418C32.0551 40.0624 33.9354 39.6381 35.5118 39.6673C35.4954 39.4842 35.8238 39.5758 35.8895 39.4551C36.7435 39.5799 37.4824 39.3927 38.2214 39.347C38.5827 39.3262 39.0096 39.4427 39.2231 39.2139C39.3217 39.243 39.3956 39.2929 39.4941 39.322C39.6172 39.0725 40.307 39.1016 40.5615 39.2388C40.9802 39.0184 41.6782 39.1265 42.1133 39.1349C42.8195 38.9352 43.813 38.956 44.3877 38.8895C44.6751 38.852 45.0118 38.9144 45.2991 38.8936C47.6885 38.7231 50.16 38.6233 52.5082 38.4486C53.7317 38.3571 55.0125 38.4111 56.2442 38.278C57.5661 38.1408 59.1754 38.145 60.6205 38.0534C61.9835 37.9661 63.5272 37.8496 64.9312 37.8205C65.4896 37.8122 65.7605 37.7706 66.13 37.7457C66.5406 37.7207 66.9511 37.7748 67.3945 37.7665C68.3387 37.7498 69.6114 37.6167 70.3668 37.5543C71.9351 37.4337 73.881 37.5169 75.6382 37.4711C75.8352 37.467 76.1636 37.4753 76.41 37.467C78.1671 37.4046 80.343 37.1675 81.6813 37.4296C81.7716 37.1342 82.3792 37.4379 82.683 37.2965C82.5681 37.3713 82.6091 37.3963 82.8062 37.3963C83.0525 37.3588 82.6174 37.3713 82.7569 37.2507C83.3235 37.3089 83.89 37.4919 84.4976 37.3921C84.5387 37.1592 84.1364 37.442 84.1692 37.2341C85.5322 37.1426 87.1579 37.2091 88.3075 37.2299C88.3896 37.4795 87.8394 37.2341 87.8641 37.4379C88.562 37.3089 89.2928 37.205 90.1385 37.1883C90.6475 37.4254 91.6493 37.2174 92.1009 37.2049C92.536 37.1925 92.9958 37.2881 93.4228 37.2757C93.7266 37.2673 94.0222 37.1842 94.2767 37.1842C95.0978 37.1842 95.7383 37.2881 96.4362 37.3006C96.8878 37.1259 97.791 37.1093 98.4068 37.2216C99.2771 37.0303 100.665 37.2424 101.568 37.2091C101.88 37.4462 102.496 37.3713 102.832 37.2341C104.376 37.2257 105.493 37.4545 106.905 37.2257C107.291 37.3921 107.907 37.1134 108.35 37.4462C109.229 37.2299 110.37 37.467 111.388 37.2881C111.495 37.3256 111.347 37.5127 111.577 37.4836C112.094 37.4171 112.899 37.571 113.277 37.3921C113.786 37.7623 114.82 37.2673 115.576 37.5169C115.756 37.5086 115.806 37.3921 116.011 37.4004C116.241 37.6292 116.766 37.4795 117.054 37.4587C117.144 37.4503 117.177 37.5294 117.325 37.5211C117.366 37.5169 117.472 37.4337 117.546 37.4379C117.62 37.442 117.751 37.5377 117.817 37.546C118.548 37.6542 119.049 37.5335 119.443 37.4462C120.346 37.6791 121.405 37.6042 122.309 37.5543C122.235 37.5377 122.152 37.467 122.251 37.4587C123.245 37.3713 124.23 37.5834 125.067 37.3796C125.609 37.5627 126.48 37.4503 127.104 37.3963C126.118 36.5852 124.057 37.0926 122.711 36.5977C122.514 36.5935 122.407 36.6684 122.21 36.6642C121.898 36.4188 121.348 36.7724 121.184 36.4688C121.561 36.3149 122.054 36.502 122.588 36.4521C122.793 36.4355 122.957 36.3565 123.162 36.344C123.392 36.3315 123.614 36.3939 123.86 36.3814C124.082 36.3731 124.328 36.2857 124.575 36.2816C124.829 36.2774 125.026 36.319 125.273 36.319C125.363 36.3232 125.347 36.24 125.42 36.2358C126.34 36.2192 127.284 36.2941 128.22 36.2941C128.524 36.2941 128.984 36.2982 129.279 36.2566C129.542 36.2192 129.805 36.0487 130.084 36.0195C130.306 35.9946 130.536 36.0611 130.782 36.057C131.414 36.0528 132.342 35.9863 132.983 35.8532C133.245 35.8365 133.237 35.9696 133.459 35.9738C133.853 35.7991 134.584 35.9863 135.142 35.9696C135.503 35.9613 135.856 35.8532 136.209 35.8407C136.595 35.8282 136.973 35.9114 137.392 35.9072C138.369 35.8989 139.395 35.7783 140.405 35.9322C140.651 35.9031 140.75 35.7617 140.988 35.7326C142.121 35.8324 143.123 35.6868 144.075 35.7159C144.445 35.7242 144.806 35.8157 145.184 35.8241C145.438 35.8282 145.75 35.7741 146.03 35.7783C146.268 35.7825 146.686 35.7367 146.851 35.9156C146.317 35.9364 145.471 35.7534 145.02 35.9572C145.898 36.1402 146.892 36.0528 147.746 36.0611C147.959 36.0653 148.173 36.1152 148.37 36.0944C148.444 36.0861 148.649 35.9738 148.739 35.9738C148.723 35.9738 148.977 36.0736 149.076 36.0861C149.724 36.1651 150.57 36.2109 151.235 36.2067C151.531 36.2026 151.818 36.2525 152.073 36.2525C152.377 36.2525 152.672 36.1319 153.001 36.1152C154.273 36.0611 155.612 36.319 157.04 36.3357C157.221 36.3606 157.114 36.161 157.336 36.2109C159.996 36.3731 163.469 36.5062 166.409 36.5686C166.524 36.5769 166.433 36.6975 166.532 36.7142C166.614 36.6726 166.573 36.5436 166.762 36.5852C167.156 36.7349 167.378 36.5644 168.018 36.6559C167.985 36.7765 168.018 36.8556 168.207 36.8514C168.56 36.9055 168.864 36.7724 169.118 36.8556C169.036 36.7391 169.389 36.7557 169.422 36.6393C170.834 36.7183 172.304 36.7474 173.544 36.8181C175.597 36.9346 177.691 36.972 179.546 37.0968C180.277 37.1467 180.942 37.1467 181.55 37.3464C181.632 37.0719 182.404 37.2465 182.675 37.363C183.241 37.205 184.226 37.4046 184.834 37.4795C184.809 37.546 184.711 37.5502 184.678 37.6126C184.85 37.6292 184.9 37.5502 185.039 37.5377C184.891 37.6375 184.883 37.6542 185.006 37.7665C185.343 37.7914 185.696 37.8372 185.786 37.6708C185.877 37.4296 185.442 37.7581 185.524 37.5169C185.77 37.4878 186.213 37.5793 186.64 37.5793C186.501 37.7373 186.673 37.6957 186.673 37.8621C186.944 37.7956 186.985 37.8621 187.24 37.7997C187.108 37.7165 186.739 37.7665 186.772 37.5876C187.453 37.6957 188.422 37.7082 189.186 37.9079C188.833 37.8538 188.644 37.9578 188.422 37.8663C188.578 38.0742 188.25 37.937 188.184 38.0867C188.693 38.1158 188.948 38.0493 189.292 38.1949C189.645 38.0119 190.187 38.2905 190.623 38.1741C190.746 38.3321 191.583 38.4611 191.805 38.2864C191.756 38.2406 191.698 38.2115 191.641 38.1865L191.608 38.1824V38.1782C191.23 38.0534 190.705 38.2531 190.442 37.9786C190.902 38.016 191.321 38.0243 191.698 38.0035C191.706 38.0909 191.616 38.0992 191.608 38.1782L191.641 38.1865C191.895 38.2281 191.961 38.1117 192.183 38.12C192.133 38.3072 192.766 38.3113 192.347 38.4569C192.807 38.5484 193.012 38.5609 193.529 38.5692C193.71 38.5234 193.636 38.2822 193.849 38.2614C193.964 38.4111 194.49 38.3321 194.671 38.4444C194.515 38.565 194.26 38.4278 194.17 38.511C194.441 38.6274 195.007 38.773 195.41 38.6732C195.508 38.5027 195.188 38.5692 195.155 38.4735C195.508 38.3404 195.804 38.5276 196.124 38.5734C196.756 38.6649 197.676 38.6441 197.996 38.7231C198.751 38.9061 199.696 38.8562 200.64 38.9144C201.371 38.9602 202.077 39.1141 202.783 39.1723L205.632 39.4219C205.944 39.4468 206.24 39.4343 206.535 39.4718C206.872 39.5134 207.192 39.6465 207.562 39.6673C207.824 39.6797 208.12 39.6173 208.407 39.6215C209.195 39.634 210.041 39.7879 210.706 39.7463C210.846 39.738 210.928 39.6756 211.068 39.6714C211.88 39.6506 212.702 39.7629 213.514 39.7588C213.638 39.7588 213.736 39.6964 213.876 39.6839C214.163 39.6631 214.524 39.7671 214.795 39.6423C214.631 39.5175 214.45 39.6673 214.171 39.609C214.171 39.5383 214.196 39.451 214.048 39.4634C212.775 39.6298 211.133 39.1473 209.187 39.0558C209.376 39.0059 209.294 38.8146 209.36 38.7855C210.074 38.8479 210.756 38.9643 211.314 38.8479C211.749 38.9394 212.685 39.0434 213.334 39.0059C213.416 39.0018 213.555 38.9227 213.621 38.9269C213.777 38.9352 213.9 39.0475 214.032 39.0434C214.327 39.0309 214.656 38.956 214.828 38.852C215.001 39.0184 215.584 39.0267 216.068 39.06C216.487 39.0891 216.914 39.085 217.193 39.0309C218.063 39.3719 219.172 38.9061 219.689 39.2596C221.536 39.4094 222.998 39.5965 224.845 39.5882C225.568 39.5841 226.414 39.5799 226.914 39.2846C226.717 39.0725 226.701 38.7356 227.062 38.6399C226.266 38.5775 225.428 38.694 224.886 38.6607C224.615 38.6441 224.542 38.5983 224.336 38.5817C223.983 38.5567 223.285 38.6732 223.236 38.382C223.425 38.2656 223.885 38.3987 224.164 38.2448C224.139 38.3488 224.23 38.3321 224.361 38.3488C225.051 38.4319 226.134 38.328 226.561 38.1408C226.061 37.8372 224.919 38.2281 224.558 37.8912C224.254 37.8247 224.312 38.0368 224.049 38.0035C223.293 37.8164 221.996 37.8996 221.208 37.7082C220.297 37.7457 219.656 37.729 218.778 37.5294C218.901 37.4961 218.991 37.4296 219.139 37.4088C219.221 37.4795 219.467 37.4545 219.541 37.5252C220.009 37.4628 220.526 37.3713 221.027 37.4212C221.512 37.467 221.996 37.833 222.407 37.5876C221.824 37.1259 220.691 37.3339 219.64 37.2507C218.219 37.1384 216.552 37.0261 214.959 37.0885C213.613 36.7849 211.889 37.0303 210.37 36.7433C210.14 36.789 209.663 36.7849 209.614 36.6102C210.279 36.2691 210.756 36.6601 211.79 36.6351C211.921 36.6019 211.921 36.4688 212.094 36.4646C213.925 36.4604 216.01 36.6268 217.702 36.5395C218.096 36.6767 218.745 36.5935 219.065 36.8472C219.147 36.7433 219.393 36.7682 219.631 36.7849C219.697 36.9429 219.755 36.868 219.894 36.9388C220.387 36.9512 220.732 36.8514 221.109 36.7724C221.224 36.8556 221.372 36.8764 221.52 36.8888C222.842 36.9887 224.303 37.076 225.625 37.1592C225.814 37.0926 225.371 37.0219 225.453 36.868C225.609 36.7724 225.757 36.6642 225.847 36.5145C226.463 36.5603 226.504 36.6268 227.317 36.5478C227.481 36.5103 227.432 36.2982 227.563 36.2358C227.719 36.2566 227.826 36.24 227.85 36.1568C227.366 36.0903 226.553 36.2317 226.57 35.9072ZM226.956 23.7122C227.153 23.7912 226.841 23.8869 226.914 24.0366C226.709 23.9493 226.849 23.8078 226.956 23.7122ZM9.61488 17.128C9.6313 17.0365 9.81194 17.0781 9.7791 16.9492C10.2143 17.0157 10.4442 16.9325 10.7644 16.9117C10.748 16.9658 10.7726 16.9949 10.8219 17.0074C10.6577 17.232 10.009 17.0739 9.61488 17.128ZM16.9471 34.4556C17.1196 34.3849 17.3659 34.3808 17.6533 34.4016C17.4562 34.4806 17.1442 34.518 16.9471 34.4556ZM17.1442 33.9524C17.4152 33.9441 17.4726 34.0564 17.7682 34.0314C17.7108 34.0938 17.0703 34.1146 17.1442 33.9524ZM23.6882 4.98284C23.7786 4.84975 24.0331 4.84975 24.3287 4.87886C24.1809 4.96621 23.9592 4.99532 23.6882 4.98284ZM32.3425 38.145C32.3014 37.9869 32.326 38.1491 31.9976 38.1242C32.0058 38.0077 32.014 37.8996 32.1043 37.8496C32.1782 37.8621 32.1372 37.8996 32.0961 37.8954C32.17 37.9661 32.326 37.9952 32.5067 38.0119C32.5231 38.1158 32.3589 38.0701 32.3425 38.145ZM34.2556 36.8972C34.2884 36.7516 34.6086 36.8389 34.8221 36.8348C34.699 36.9096 34.4937 36.918 34.2556 36.8972ZM36.9816 39.1889C36.9651 39.0059 37.3757 39.1557 37.5481 39.1265C37.4414 39.3137 37.1622 39.1141 36.9816 39.1889ZM129.821 1.28106C130.733 1.27275 131.973 1.21036 132.974 1.31434C131.825 1.48071 130.224 1.39753 128.91 1.27691C129.148 1.1646 129.501 1.28522 129.821 1.28106ZM129.123 1.80098C129.025 2.08381 128.376 1.86337 128.13 1.88832C128.196 1.6554 128.779 1.81761 129.123 1.80098ZM127.514 1.20204C127.457 1.36009 127.054 1.24779 126.808 1.25611C127.005 1.11885 127.227 1.29354 127.514 1.20204ZM103.407 2.07133C103.103 2.13788 102.882 2.05469 102.422 2.06301C102.529 1.90912 103.227 2.00478 103.407 2.07133ZM100.55 34.7426C99.8601 34.7343 99.1868 34.8633 98.4971 34.8633C98.1522 34.8633 97.7828 34.805 97.4543 34.805C97.093 34.805 96.1816 34.8799 95.7629 34.8508C94.8679 34.7926 93.8251 34.9756 93.0862 34.9381C92.9219 34.9298 92.7577 34.8674 92.6017 34.8633C91.8217 34.8466 91.0252 34.9714 90.2042 34.9672C89.3749 34.9631 88.5127 34.934 87.6752 34.9672C86.9527 34.9964 86.2548 35.1461 85.5404 35.1752C84.9821 35.2002 84.3252 35.1336 83.7915 35.1253C83.6601 35.1253 83.578 35.1918 83.4302 35.2002C83.2167 35.2085 82.954 35.1211 82.7405 35.117C81.7059 35.092 80.4251 35.1752 79.4972 35.221C78.5612 35.2626 77.6252 35.2293 76.6891 35.2542C75.3179 35.2875 73.8646 35.379 72.5345 35.3541C68.4126 35.2792 64.1676 35.5121 60.3906 35.3873C61.2692 35.2917 61.8932 35.171 62.78 35.3333C63.0017 35.2875 62.7225 35.1669 62.8128 35.0546C63.2809 35.2126 63.7078 34.9672 64.0609 35.1711C64.3072 35.1378 64.4961 34.9548 64.6931 35.1586C64.8902 35.1128 64.9559 35.0463 64.9969 34.988C65.35 34.9589 65.3992 35.1045 65.6045 35.1586C65.7359 35.0005 65.35 35.013 65.7113 34.8841C66.0972 34.8882 65.662 35.0795 65.9576 35.1295C66.1054 35.0546 66.3271 35.1128 66.5241 35.1128C67.0414 35.1087 67.6654 34.8882 68.1663 34.8757C68.7575 34.8633 69.4061 35.0421 70.0466 35.0255C69.751 34.6927 70.646 34.9672 70.7856 34.7385C71.6723 35.038 72.7972 34.6761 73.6347 34.9423C73.4787 34.7801 73.9303 34.7718 74.1027 34.5929C74.2423 34.6428 74.4312 34.6678 74.4312 34.7967C74.8253 34.6345 75.3754 34.9132 75.5725 34.6262C75.8434 34.7967 76.1554 34.7218 76.4182 34.6262C76.5085 34.6595 76.41 34.805 76.5331 34.8175C76.9929 34.8924 77.2228 34.7801 77.461 34.6803C78.085 34.7094 78.7254 34.7551 79.021 34.5305C79.1524 34.5555 79.0539 34.7135 79.2838 34.6844C79.4808 34.8175 79.292 34.4889 79.6532 34.518C79.9242 34.4848 79.8667 34.6262 79.9817 34.6761C80.811 34.6511 81.6731 34.647 82.3218 34.4764C82.7652 34.5638 83.4384 34.543 83.6766 34.3184C84.161 34.4307 84.7604 34.6095 85.1463 34.3517C85.3516 34.568 85.8935 34.3392 86.0741 34.2186C86.5093 34.3059 87.1005 34.2893 87.8066 34.4057C88.1843 34.2352 88.6605 34.2227 89.3667 34.256C89.301 34.3434 89.1532 34.2768 89.2763 34.3933C89.7444 34.4557 89.8839 34.2602 90.1467 34.1603C91.288 34.2768 93.2422 34.5513 94.482 34.3059C94.7201 34.3309 94.8761 34.4016 95.1717 34.3891C95.5084 34.3558 95.7054 34.2061 96.0913 34.3475C96.1899 34.3226 96.0503 34.2019 96.2555 34.1728C96.6086 34.1603 96.7646 34.3517 97.0684 34.4016C97.8402 34.5305 98.7598 34.3558 99.5973 34.4016C100.312 34.439 101.469 34.543 102.249 34.5472C102.364 34.5472 102.553 34.4681 102.676 34.4764C102.939 34.4931 103.12 34.5804 103.366 34.6095C104.171 34.7052 105.016 34.5305 105.755 34.6012C106.232 34.6428 106.774 34.4681 107.43 34.647C105.181 34.8341 103.054 34.7676 100.55 34.7426ZM108.35 34.6553C108.063 34.6761 107.775 34.7718 107.504 34.6553C107.619 34.5388 109.5 34.6761 108.35 34.6553ZM114.287 34.2851C114.385 34.1146 114.131 34.1437 114.18 34.0023C114.344 33.994 114.443 34.0231 114.525 34.0688C114.525 34.1978 114.5 34.3184 114.287 34.2851ZM125.667 2.49974C125.552 2.5039 125.396 2.42903 125.256 2.42903C125.133 2.42903 125.059 2.50806 124.969 2.50806C123.942 2.47478 122.768 2.36248 121.619 2.3708C120.937 2.37496 120.239 2.33337 119.591 2.35416C119.336 2.36248 119.057 2.44983 118.802 2.44983C118.433 2.44983 118.072 2.34585 117.694 2.34169C116.052 2.32089 114.245 2.44567 112.152 2.31673C112.308 2.21691 112.677 2.28762 112.866 2.21275C112.628 2.10461 112.045 2.16284 112.02 2.26266C111.593 2.2585 111.035 2.2585 110.271 2.21275C109.459 2.16284 108.481 2.26682 107.898 2.08381C106.692 2.2585 105.099 2.1462 103.76 2.09213C103.974 1.87584 104.22 1.85921 104.614 1.99646C104.713 1.99231 104.655 1.85921 104.77 1.86753C105.329 1.88 105.969 1.74691 106.453 1.86753C106.724 1.71779 107.094 1.80098 107.652 1.79266C107.989 1.79266 108.334 1.69284 108.572 1.70531C108.72 1.71363 108.908 1.80514 109.048 1.82593C109.68 1.90912 110.797 1.73859 111.651 1.78018C111.79 1.7885 111.955 1.70531 112.078 1.70947C112.357 1.71779 112.636 1.79682 112.907 1.80098C113.433 1.81346 114.024 1.77602 114.73 1.80514C115.025 1.81761 115.444 1.90912 115.773 1.86337C116.044 1.82593 115.83 1.81346 116.118 1.88416C116.216 1.90496 116.364 1.9008 116.471 1.9008C117.275 1.92576 118.072 1.92576 119.131 1.95071C119.262 1.95487 119.476 1.87584 119.492 1.87584C119.591 1.88 119.648 1.98399 119.755 1.98399C120.149 1.98815 120.584 1.88832 120.962 1.90912C121.233 1.92576 121.52 2.02974 121.783 2.04638C122.382 2.08797 122.965 2.02142 123.532 2.09629C123.967 2.15452 124.238 2.25018 124.78 2.2585C125.568 2.26682 126.586 2.42487 127.358 2.39992C127.522 2.39576 127.637 2.32505 127.785 2.32921C128.237 2.35001 128.598 2.5039 128.984 2.30009C129.789 2.54133 131.02 2.45399 131.702 2.44983C132.359 2.61204 132.835 2.41655 133.508 2.5954C130.692 2.58293 127.916 2.44567 125.667 2.49974ZM139.814 1.59717C139.592 1.62213 139.379 1.52646 139.198 1.46823C139.091 1.48903 139.19 1.51814 139.264 1.51814C139.067 1.72611 138.82 1.53478 138.558 1.52646C137.761 1.50983 136.784 1.62213 136.053 1.38921C135.766 1.32682 135.569 1.45991 135.429 1.35593C137.318 1.21868 139.108 1.41832 140.676 1.45576C140.61 1.54726 140.142 1.55558 139.814 1.59717ZM140.742 1.50567C140.939 1.29354 141.243 1.50151 141.514 1.50151C141.702 1.50151 141.9 1.43496 142.08 1.43912C142.975 1.46823 143.755 1.53478 144.658 1.58053C143.657 1.76354 141.817 1.55558 140.742 1.50567ZM147.081 1.24779L146.662 1.22283C146.686 1.15629 147.146 1.06478 147.081 1.24779ZM147.918 1.85505C147.031 1.81761 145.956 1.7885 144.921 1.68868C145.151 1.58053 145.545 1.58885 145.841 1.59717C146.785 1.63045 147.852 1.79266 148.698 1.75523C148.55 1.93407 148.173 1.86337 147.918 1.85505ZM149.527 1.89248C149.404 1.90496 149.396 1.85089 149.396 1.79266C149.831 1.77602 150.365 1.80514 151.005 1.83425C150.693 1.9216 149.93 1.93408 149.527 1.89248ZM150.422 1.47655C149.593 1.21452 148.37 1.40584 147.442 1.17292C147.54 1.00239 147.893 1.02735 148.09 1.01903C148.747 1.00239 149.56 1.11053 150.176 1.18124C150.931 0.998232 152.188 1.09806 152.746 1.36841C152.237 1.50567 150.931 1.19788 150.422 1.47655ZM152.188 1.94655C152.212 1.81761 152.976 1.82177 152.951 1.98815C152.615 1.93408 152.541 1.92992 152.188 1.94655ZM154.158 1.35593C153.846 1.55974 153.337 1.3393 152.96 1.4308C153.033 1.28522 153.772 1.17708 153.879 1.38921C153.961 1.38505 153.945 1.30602 153.961 1.25195L154.175 1.26443C154.125 1.30186 154.076 1.33929 154.158 1.35593ZM154.561 1.47239C154.93 1.16045 155.16 1.50983 155.554 1.38505C155.554 1.66788 154.873 1.42248 154.561 1.47239ZM156.728 1.5431C156.622 1.45991 156.211 1.5431 156.26 1.37673C156.564 1.39337 156.909 1.41416 156.966 1.36841C157.114 1.41 156.81 1.51399 156.728 1.5431ZM157.484 1.6762C157.213 1.71363 157.295 1.55142 157.073 1.55974C157.081 1.46823 157.27 1.50983 157.237 1.38089C157.434 1.35177 157.41 1.45576 157.582 1.44744C157.418 1.53894 157.623 1.60133 157.484 1.6762ZM158.009 1.42664C158.108 1.30602 158.37 1.44744 158.502 1.45576C158.412 1.62629 158.214 1.4308 158.009 1.42664ZM179.505 3.43974C179.472 3.40231 179.439 3.36072 179.456 3.29833C179.612 3.2193 179.973 3.29417 180.228 3.29417C180.031 3.48965 179.842 3.39815 179.505 3.43974ZM182.026 3.48549C181.919 3.51877 181.796 3.54372 181.796 3.66019C181.862 3.76833 182.231 3.70178 182.42 3.73921C182.174 3.90142 181.673 3.91806 181.435 3.73089C180.991 3.86399 180.614 3.53541 180.252 3.62275C180.302 3.50629 180.458 3.3316 180.622 3.45638C180.983 3.14859 182.042 3.4647 182.576 3.51877C182.477 3.64771 182.133 3.58532 182.026 3.48549ZM189.202 37.9203C189.514 37.8455 189.81 37.8954 190.114 37.9245C189.843 38.0659 189.489 37.9619 189.202 37.9203ZM218.843 38.7481C218.769 38.8271 218.695 38.9019 218.474 38.8687C218.465 38.7231 218.646 38.7314 218.843 38.7481ZM216.807 38.2198C216.717 38.1283 216.355 38.1865 216.257 38.095C216.29 37.9578 217.02 37.9578 216.807 38.2198ZM215.805 37.2757C216.002 37.2965 216.084 37.3755 216.281 37.3963C216.29 37.4337 216.249 37.4379 216.208 37.4379L216.199 37.5294C216.01 37.4753 215.74 37.467 215.805 37.2757ZM215.099 37.8455C215.222 37.8621 215.247 37.9328 215.214 38.0368L215.009 38.0243C214.992 37.9287 215.066 37.9079 215.099 37.8455ZM214.598 37.912C214.689 37.9453 214.713 38.016 214.713 38.1034L214.508 38.0909C214.524 38.0243 214.533 37.9619 214.459 37.9495C214.491 37.8788 214.574 37.9952 214.598 37.912ZM213.178 35.8282L213.802 35.8657C213.769 36.032 213.153 36.0362 213.178 35.8282ZM219.443 36.2192C218.991 36.0487 218.236 36.2192 218.071 35.9572C218.622 35.978 218.794 35.9863 219.336 35.978C219.262 36.1194 219.508 36.0778 219.443 36.2192ZM221.068 36.6809C220.855 36.7017 220.871 36.5894 220.658 36.6102C220.707 36.5686 220.756 36.5311 220.666 36.5187C220.723 36.3606 221.011 36.4646 221.159 36.4979C221.159 36.5811 221.06 36.5935 221.068 36.6809ZM221.446 35.3041C221.43 35.1544 221.651 35.1918 221.684 35.0837C221.955 35.1419 221.643 35.3041 221.446 35.3041ZM33.1061 39.3886L33.1307 39.3927L33.0979 39.3969C33.1061 39.3927 33.1061 39.3927 33.1061 39.3886ZM180.474 38.6524C180.581 38.6025 180.663 38.5276 180.835 38.5318C180.786 38.6773 180.901 38.7273 181.016 38.773C180.885 38.8811 180.729 38.6316 180.474 38.6524ZM148.32 37.0802C148 37.1051 147.516 36.972 147.122 37.1093C147.622 37.1426 147.787 37.1134 147.729 37.3297C148.164 37.3505 148.509 37.2965 148.985 37.3547C149.1 37.1384 148.6 37.1218 148.821 36.972C148.517 36.893 148.476 37.0344 148.32 37.0802ZM148.862 37.2507C148.665 37.2341 148.403 37.2507 148.312 37.1758C148.476 37.1051 148.936 37.1342 148.862 37.2507ZM179.899 38.8104C181.246 39.0558 182.379 39.0267 183.923 39.1681C183.75 39.3387 183.233 39.2347 183.052 39.4011C182.707 39.3428 182.395 39.4926 182.149 39.3511C181.894 39.3179 181.944 39.5258 181.64 39.4634C181.147 39.2181 180.334 39.2846 179.563 39.2555C178.503 39.2181 177.354 38.9976 176.631 39.1432C176.418 39.1515 176.336 39.0517 176.155 39.0226C175.802 38.9727 175.392 39.0683 175.096 39.06C174.513 39.0392 174.004 38.8978 173.437 38.877C173.109 38.8645 172.772 38.9227 172.452 38.9186C171.524 38.9019 170.613 38.7564 169.669 38.7189C169.094 38.6981 168.511 38.8021 167.854 38.6649C167.624 38.694 167.723 38.5359 167.591 38.511C166.138 38.3363 164.652 38.6191 163.248 38.4611C162.829 38.4153 162.279 38.2947 161.655 38.2822C160.957 38.2656 160.267 38.2614 159.561 38.2157C159.109 38.1865 158.584 38.2822 158.157 38.2323C157.919 38.2032 157.755 38.0784 157.549 38.0576C157.385 38.0451 157.155 38.095 156.983 38.0742C156.58 38.0202 156.252 37.7997 155.833 37.7332C155.127 37.6167 154.446 37.7124 153.723 37.7581C153.074 37.5335 152.286 37.6167 151.531 37.3588C151.293 37.2715 151.465 37.5127 151.301 37.4878C150.488 37.4795 149.864 37.4171 149.281 37.3755C149.248 37.1966 149.618 37.3339 149.782 37.3089C149.642 37.2299 149.404 37.2091 149.166 37.18C149.371 36.997 149.798 37.2673 149.823 36.9845C150.537 37.0344 151.046 37.2008 151.465 37.3089C151.867 37.2673 152.245 37.155 152.59 37.3256C152.787 37.2133 152.483 37.284 152.541 37.1384C152.853 37.0885 153.083 37.2507 153.362 37.2757C153.452 37.284 153.485 37.1966 153.584 37.1966C153.698 37.1966 153.789 37.2923 153.92 37.3089C154.093 37.3297 154.24 37.2715 154.347 37.284C154.708 37.3422 155.217 37.5252 155.669 37.3547L156.071 37.5169L160.407 37.6625C160.637 37.6167 160.44 37.8164 160.678 37.7706C162.065 37.6666 163.625 37.7997 165.087 37.8704C165.128 37.8372 165.169 37.7997 165.177 37.7373C165.235 37.7332 165.243 37.7581 165.243 37.7873C165.391 37.9079 165.777 37.7706 165.809 37.7706C166.138 37.7914 166.392 37.9703 166.836 38.0119C167.205 38.0451 167.632 38.0534 168.018 38.0784C168.971 38.1366 169.997 37.9994 170.818 38.1366C170.941 38.1574 171.048 38.2406 171.155 38.2489C171.664 38.2947 172.074 38.1824 172.633 38.2365C173.651 38.3363 174.891 38.3072 175.983 38.3737C177.477 38.4652 178.996 38.4444 180.499 38.7605C180.326 38.9186 180.055 38.7189 179.899 38.8104Z" fill="#E1B7B0"/>
</svg>
