<?xml version="1.0" standalone="no"?>
<!DOCTYPE svg PUBLIC "-//W3C//DTD SVG 1.1//EN" "http://www.w3.org/Graphics/SVG/1.1/DTD/svg11.dtd" >
<svg xmlns="http://www.w3.org/2000/svg">
<metadata>Generated by IcoMoon</metadata>
<defs>
<font id="ootsb" horiz-adv-x="1024">
<font-face units-per-em="1024" ascent="960" descent="-64" />
<missing-glyph horiz-adv-x="1024" />
<glyph unicode="&#x20;" horiz-adv-x="512" d="" />
<glyph unicode="&#xe900;" glyph-name="arrow-down" d="M256.328 408.122c-140.338 143.002-255.16 260.677-255.16 261.5s16.429 18.228 36.508 38.676l36.508 37.179 439.496-447.825 218.659 222.803c120.263 122.542 219.321 222.803 220.129 222.803 1.908 0 72.265-71.717 72.265-73.661 0-1.939-509.883-521.478-511.786-521.478-0.803 0-116.282 117.001-256.62 260.003v0z" />
<glyph unicode="&#xe901;" glyph-name="arrow-up" d="M767.672 487.878c140.338-143.002 255.16-260.677 255.16-261.5s-16.429-18.228-36.508-38.676l-36.508-37.179-439.496 447.825-218.659-222.803c-120.263-122.542-219.321-222.803-220.129-222.803-1.908 0-72.265 71.717-72.265 73.661 0 1.939 509.883 521.478 511.786 521.478 0.803 0 116.282-117.001 256.62-260.003v0z" />
<glyph unicode="&#xe902;" glyph-name="cart" d="M491.102 41.455c0-46.057-37.425-83.394-83.592-83.394s-83.592 37.337-83.592 83.394c0 46.057 37.425 83.394 83.592 83.394s83.592-37.337 83.592-83.394zM806.661 41.455c0-46.057-37.425-83.394-83.592-83.394s-83.592 37.337-83.592 83.394c0 46.057 37.425 83.394 83.592 83.394s83.592-37.337 83.592-83.394zM863.086 337.503c10.449 0 18.808 6.255 20.898 14.594l119.118 421.139c4.18 10.424-2.090 22.933-14.629 25.018h-758.596c0 2.085 0 4.17-2.090 4.17l-39.706 108.412c-4.18 14.594-16.718 22.933-29.257 27.103v0h-119.118c-22.988-2.085-39.706-20.848-39.706-41.697 0-22.933 16.718-39.612 39.706-41.697h83.592l20.898-52.121 125.388-448.242c0-4.17 2.090-6.255 4.18-8.339l-50.155-120.921c-8.359-18.764 2.090-41.697 20.898-50.036v0h2.090c4.18-2.085 10.449-4.17 16.718-4.17h585.143c22.988 0 41.796 18.764 41.796 41.697s-18.808 41.697-41.796 41.697h-528.718l35.527 83.394h507.82z" />
<glyph unicode="&#xe903;" glyph-name="circle-left" d="M511.696-39.024c268.324 0 486.613 218.474 486.613 487.024 0 268.538-218.29 487.024-486.613 487.024s-486.613-218.487-486.613-487.024c0-268.55 218.29-487.024 486.613-487.024v0zM511.696 960c282.074 0 511.568-229.688 511.568-512 0-282.324-229.494-512-511.568-512-282.086 0-511.568 229.676-511.568 512 0 282.312 229.482 512 511.568 512v0zM441.356 585.252c71.698 69.535 130.699 126.428 131.112 126.428s9.139-8.14 19.391-18.089l18.641-18.089-224.532-217.763 111.71-108.342c61.44-59.588 111.71-108.67 111.71-109.070 0-0.945-35.957-35.806-36.932-35.806-0.972 0-261.46 252.639-261.46 253.582 0 0.398 58.662 57.616 130.361 127.151v0z" />
<glyph unicode="&#xe904;" glyph-name="circle-right" d="M512.304 935.024c-268.324 0-486.613-218.474-486.613-487.024 0-268.538 218.29-487.024 486.613-487.024s486.613 218.487 486.613 487.024c0 268.55-218.29 487.024-486.613 487.024v0zM512.304-64c-282.074 0-511.568 229.688-511.568 512 0 282.324 229.494 512 511.568 512 282.086 0 511.568-229.676 511.568-512 0-282.312-229.482-512-511.568-512v0zM582.644 310.748c-71.698-69.535-130.699-126.428-131.112-126.428s-9.139 8.14-19.391 18.089l-18.641 18.089 224.532 217.763-111.71 108.342c-61.44 59.588-111.71 108.67-111.71 109.070 0 0.945 35.957 35.806 36.932 35.806 0.972 0 261.46-252.639 261.46-253.582 0-0.398-58.662-57.616-130.361-127.151v0z" />
<glyph unicode="&#xe905;" glyph-name="close" d="M512.304 935.024c-268.324 0-486.613-218.474-486.613-487.024 0-268.538 218.29-487.024 486.613-487.024s486.613 218.487 486.613 487.024c0 268.55-218.29 487.024-486.613 487.024v0zM512.304-64c-282.074 0-511.568 229.688-511.568 512 0 282.324 229.494 512 511.568 512 282.086 0 511.568-229.676 511.568-512 0-282.312-229.482-512-511.568-512v0zM762.711 671.662l-19.113 19.052-219.814-219.136-219.841 219.136-19.113-19.052 219.841-219.136-219.841-219.136 19.113-19.052 219.841 219.136 219.814-219.136 19.113 19.052-219.814 219.136z" />
<glyph unicode="&#xe906;" glyph-name="facebook" d="M512.137 935.024c-268.538 0-487.012-218.474-487.012-487.024 0-268.538 218.474-487.012 487.012-487.012 268.563 0 487.037 218.474 487.037 487.012 0 268.55-218.474 487.024-487.037 487.024v0zM512.137-63.988c-282.312 0-511.988 229.676-511.988 511.988 0 282.324 229.676 512 511.988 512 282.324 0 512.012-229.676 512.012-512 0-282.312-229.688-511.988-512.012-511.988v0zM403.706 524.126h46.467v45.156c0 19.931 0.5 50.651 14.96 69.682 15.248 20.143 36.165 33.829 72.155 33.829 58.63 0 83.319-8.354 83.319-8.354l-11.626-68.87c0 0-19.356 5.62-37.426 5.62-18.082 0-34.267-6.481-34.267-24.551v-52.511h74.115l-5.17-67.259h-68.945v-233.634h-87.115v233.634h-46.467v67.259z" />
<glyph unicode="&#xe907;" glyph-name="flikr" d="M492.964 445.379c0-86.921-68.852-157.389-153.771-157.389s-153.758 70.47-153.758 157.389c0 86.99 68.839 157.445 153.758 157.445s153.771-70.47 153.771-157.445v0zM788.387 448.013c0-73.865-58.702-133.941-130.842-133.941s-130.815 60.091-130.815 133.941c0 73.85 58.688 133.927 130.815 133.927s130.842-60.077 130.842-133.927v0zM657.544 608.066c-86.213 0-156.346-71.793-156.346-160.054 0-88.273 70.133-160.081 156.346-160.081 86.2 0 156.359 71.795 156.359 160.081 0 88.259-70.173 160.054-156.359 160.054v0zM506.559 929.157c-265.315 0-481.157-215.842-481.157-481.157 0-265.302 215.842-481.157 481.157-481.157s481.157 215.854 481.157 481.157c0 265.315-215.842 481.157-481.157 481.157v0zM506.559-57.831c-278.91 0-505.831 226.921-505.831 505.831 0 278.923 226.921 505.831 505.831 505.831 278.923 0 505.831-226.909 505.831-505.831 0-278.91-226.909-505.831-505.831-505.831v0z" />
<glyph unicode="&#xe908;" glyph-name="google" d="M512.162 935.024c-268.563 0-487.049-218.412-487.049-487.024 0-268.488 218.487-487.024 487.049-487.024 268.55 0 487.024 218.537 487.024 487.024 0 268.613-218.474 487.024-487.024 487.024v0zM512.162-64c-282.324 0-512.025 229.651-512.025 512s229.701 512 512.025 512c282.324 0 512-229.651 512-512s-229.676-512-512-512v0zM420.428 475.639c-0.094-22.397 0-44.793 0.095-67.188 37.547-1.224 75.187-0.658 112.734-1.224-16.561-83.28-129.859-110.286-189.802-55.897-61.637 47.71-58.72 152.35 5.364 196.672 44.793 35.759 108.499 26.914 153.29-4.046 17.598 16.279 34.064 33.688 49.967 51.756-37.264 29.736-82.996 50.909-131.648 48.65-101.535 3.388-194.883-85.538-196.577-187.074-6.494-82.996 48.086-164.394 125.155-193.755 76.786-29.547 175.216-9.41 224.244 59.567 32.371 43.569 39.334 99.653 35.57 152.35-62.861 0.471-125.626 0.377-188.392 0.189v0zM787.611 475.921c-0.189 18.727-0.282 37.547-0.376 56.273h-55.99c-0.189-18.727-0.376-37.452-0.471-56.273-18.82-0.094-37.547-0.189-56.273-0.377v-55.99c18.725-0.189 37.546-0.377 56.273-0.564 0.189-18.727 0.189-37.452 0.377-56.179h56.084c0.094 18.727 0.187 37.452 0.376 56.273 18.82 0.189 37.547 0.282 56.273 0.471v55.99c-18.725 0.189-37.546 0.189-56.273 0.377v0z" />
<glyph unicode="&#xe909;" glyph-name="houzz" d="M499.663 359.821l166.554 95.906v-192.138l-166.554-96.231v192.463zM333.108 455.727v-192.138l166.554 96.231-166.554 95.906zM499.663 744.096v-192.138l-166.554-96.231v192.138l166.554 96.231zM499.663 551.959l166.554 95.906v-192.138l-166.554 96.231zM506.559 929.157c-265.315 0-481.157-215.842-481.157-481.157 0-265.302 215.842-481.157 481.157-481.157s481.157 215.854 481.157 481.157c0 265.315-215.842 481.157-481.157 481.157v0zM506.559-57.831c-278.91 0-505.831 226.921-505.831 505.831 0 278.923 226.921 505.831 505.831 505.831 278.923 0 505.831-226.909 505.831-505.831 0-278.91-226.909-505.831-505.831-505.831v0z" />
<glyph unicode="&#xe90a;" glyph-name="instagram" d="M506.559 929.157c-265.315 0-481.157-215.842-481.157-481.157 0-265.302 215.842-481.157 481.157-481.157s481.157 215.854 481.157 481.157c0 265.315-215.842 481.157-481.157 481.157v0zM506.559-57.831c-278.91 0-505.831 226.921-505.831 505.831 0 278.923 226.921 505.831 505.831 505.831 278.923 0 505.831-226.909 505.831-505.831 0-278.91-226.909-505.831-505.831-505.831v0zM501.686 578.050c-70.816 0-129.493-57.913-129.493-130.050s57.665-130.050 129.493-130.050c71.828 0 129.493 58.929 129.493 130.050s-58.676 130.050-129.493 130.050v0zM501.686 364.687c-45.525 0-82.956 37.593-82.956 83.313s37.432 83.313 82.956 83.313c45.525 0 82.956-37.593 82.956-83.313s-37.432-83.313-82.956-83.313v0zM665.575 581.098c0-16.273-13.135-29.464-29.338-29.464s-29.338 13.192-29.338 29.464c0 16.273 13.135 29.464 29.338 29.464s29.338-13.192 29.338-29.464zM712.112 657.3c-26.303 27.432-63.735 41.657-106.225 41.657h-208.403c-88.015 0-146.691-58.929-146.691-147.322v-208.283c0-43.689 14.163-81.281 42.49-108.714 27.315-26.416 63.735-39.625 105.213-39.625h206.379c43.501 0 79.921 14.224 106.225 39.625 27.315 26.416 41.478 64.009 41.478 107.698v209.3c0 42.673-14.163 79.249-40.467 105.666v0zM706.042 342.334c0-31.497-9.105-56.897-27.315-74.169s-43.501-26.416-73.851-26.416h-206.379c-30.35 0-55.641 9.144-73.851 26.416-18.21 18.288-27.315 43.689-27.315 75.185v208.283c0 30.481 9.105 55.881 27.315 74.169 17.198 17.272 43.501 26.416 73.851 26.416h208.403c30.35 0 55.641-9.144 73.851-27.432 17.198-18.288 27.315-43.689 27.315-73.153v-209.3h-2.023z" />
<glyph unicode="&#xe90b;" glyph-name="arrow-left" d="M472.122 703.672c143.002 140.338 260.677 255.16 261.5 255.16s18.228-16.429 38.676-36.508l37.179-36.508-447.825-439.496 222.803-218.659c122.542-120.263 222.803-219.321 222.803-220.129 0-1.908-71.717-72.265-73.661-72.265-1.939 0-521.478 509.883-521.478 511.786 0 0.803 117.001 116.282 260.003 256.62v0z" />
<glyph unicode="&#xe90c;" glyph-name="linkedin" d="M506.559 929.157c-265.315 0-481.157-215.842-481.157-481.157 0-265.253 215.842-481.157 481.157-481.157s481.157 215.904 481.157 481.157c0 265.315-215.842 481.157-481.157 481.157v0zM506.559-57.831c-278.91 0-505.831 226.884-505.831 505.831 0 278.923 226.921 505.831 505.831 505.831 278.923 0 505.831-226.909 505.831-505.831 0-278.947-226.909-505.831-505.831-505.831v0zM728.632 264.050h-98.193v143.607c0 37.506-15.323 63.106-49.090 63.106-25.822 0-40.17-17.272-46.87-33.989-2.541-5.922-2.122-14.311-2.122-22.577v-150.146h-97.255c0 0 1.295 254.211 0 277.319h97.255v-43.489c5.749 19 36.815 46.154 86.398 46.154 61.526 0 109.876-39.874 109.876-125.767v-154.217zM336.748 576.049h-0.629c-31.312 0-51.632 21.233-51.632 48.091 0 27.34 20.899 48.116 52.89 48.116 31.904 0 51.545-20.727 52.187-48.054 0-26.871-20.283-48.153-52.816-48.153v0zM295.652 264.050h86.621v277.319h-86.621v-277.319z" />
<glyph unicode="&#xe90d;" glyph-name="mail" d="M592.193 213.59l-100.966 67.285-84.094-67.285v123.373l194.699 225.542-236.569-195.3-143.19 93.132 493.494 246.747zM506.559 929.157c-265.327 0-481.181-215.842-481.181-481.144 0-265.315 215.854-481.169 481.181-481.169s481.181 215.854 481.181 481.169c0 265.302-215.854 481.144-481.181 481.144v0zM506.559-57.831c-278.923 0-505.856 226.933-505.856 505.844s226.933 505.819 505.856 505.819c278.923 0 505.856-226.909 505.856-505.819s-226.933-505.844-505.856-505.844v0z" />
<glyph unicode="&#xe90e;" glyph-name="menu" d="M988.518 474.773h-953.037c-15.053 0-27.238-11.977-27.238-26.773s12.186-26.773 27.238-26.773h953.037c15.053 0 27.238 11.977 27.238 26.773s-12.186 26.773-27.238 26.773v0zM988.518 207.095h-953.037c-15.053 0-27.238-11.977-27.238-26.773s12.186-26.773 27.238-26.773h953.037c15.053 0 27.238 11.977 27.238 26.773s-12.186 26.773-27.238 26.773v0zM35.482 688.854h953.037c15.053 0 27.238 11.977 27.238 26.773s-12.186 26.773-27.238 26.773h-953.037c-15.053 0-27.238-11.977-27.238-26.773s12.186-26.773 27.238-26.773v0z" />
<glyph unicode="&#xe90f;" glyph-name="minus" d="M512.304 935.024c-268.324 0-486.613-218.474-486.613-487.024 0-268.538 218.29-487.024 486.613-487.024s486.613 218.487 486.613 487.024c0 268.55-218.29 487.024-486.613 487.024v0zM512.304-64c-282.074 0-511.568 229.688-511.568 512 0 282.324 229.494 512 511.568 512 282.086 0 511.568-229.676 511.568-512 0-282.312-229.482-512-511.568-512v0zM231.226 471.355v-38.71h578.065v38.71z" />
<glyph unicode="&#xe910;" glyph-name="pinterest" horiz-adv-x="1012" d="M505.979 924.296c-265.315 0-481.157-215.842-481.157-481.144 0-265.339 215.842-481.12 481.157-481.12s481.157 215.78 481.157 481.12c0 265.302-215.842 481.144-481.157 481.144v0zM505.979-62.643c-278.91 0-505.831 226.884-505.831 505.794s226.921 505.819 505.831 505.819c278.923 0 505.831-226.909 505.831-505.819s-226.909-505.794-505.831-505.794v0zM505.992 666.531c-122.387 0-221.64-99.414-221.64-222.085 0-90.951 54.593-169.046 132.688-203.344-0.642 15.422-0.111 34.051 3.849 50.953 4.256 18.013 28.499 121.029 28.499 121.029s-7.069 14.188-7.069 35.087c0 32.965 19.049 57.517 42.749 57.517 20.147 0 29.906-15.163 29.906-33.323 0-20.332-12.942-50.645-19.579-78.774-5.552-23.564 11.782-42.811 34.964-42.811 42.009 0 70.286 54.038 70.286 118.044 0 48.671-32.731 85.078-92.222 85.078-67.226 0-109.112-50.201-109.112-106.299 0-19.345 5.7-33.039 14.595-43.526 4.108-4.935 4.676-6.909 3.208-12.461-1.073-4.071-3.516-13.941-4.528-17.766-1.48-5.675-6.008-7.649-11.091-5.552-30.967 12.584-45.377 46.635-45.377 84.795 0 63.093 53.075 138.771 158.387 138.771 84.622 0 140.3-61.391 140.3-127.247 0-87.188-48.325-152.206-119.598-152.206-23.91 0-46.425 12.954-54.112 27.636 0 0-12.88-51.077-15.607-61.070-4.676-17.026-13.892-34.174-22.306-47.499 19.925-5.922 40.997-9.13 62.809-9.13 122.399 0 221.616 99.439 221.616 222.097 0 122.67-99.217 222.085-221.616 222.085z" />
<glyph unicode="&#xe911;" glyph-name="plus" d="M498.025 164.755v264.258h-266.799v44.043h266.799v264.258h44.466v-264.258h266.799v-44.043h-266.799v-264.258zM512.304 935.024c-268.324 0-486.613-218.474-486.613-487.024 0-268.538 218.29-487.024 486.613-487.024s486.613 218.487 486.613 487.024c0 268.55-218.29 487.024-486.613 487.024v0zM512.304-64c-282.074 0-511.568 229.688-511.568 512 0 282.324 229.494 512 511.568 512 282.086 0 511.568-229.676 511.568-512 0-282.312-229.482-512-511.568-512v0z" />
<glyph unicode="&#xe912;" glyph-name="arrow-right" d="M551.878 192.328c-143.002-140.338-260.677-255.16-261.5-255.16s-18.228 16.429-38.676 36.508l-37.179 36.508 447.825 439.496-222.803 218.659c-122.542 120.263-222.803 219.321-222.803 220.129 0 1.908 71.717 72.265 73.661 72.265 1.939 0 521.478-509.883 521.478-511.786 0-0.803-117.001-116.282-260.003-256.62v0z" />
<glyph unicode="&#xe913;" glyph-name="search" d="M1003.6 54.864l-205.471 205.471c125.212 172.43 110.137 415.050-45.329 570.516-86.107 86.096-198.963 129.149-311.819 129.149s-225.712-43.054-311.819-129.161c-172.214-172.214-172.214-451.425 0-623.639 86.107-86.107 198.963-129.161 311.819-129.161 90.897 0 181.76 27.978 258.685 83.831l205.471-205.471c13.585-13.596 31.414-20.4 49.232-20.4s35.647 6.804 49.232 20.4c27.193 27.182 27.193 71.27 0 98.463v0zM198.087 276.127c-133.928 133.928-133.928 351.858 0 485.786 64.876 64.876 151.142 100.614 242.893 100.614s178.017-35.726 242.893-100.614c133.928-133.928 133.928-351.858 0-485.786-64.876-64.876-151.142-100.614-242.893-100.614s-178.005 35.738-242.893 100.614v0z" />
<glyph unicode="&#xe914;" glyph-name="snapchat" d="M507.381 229.008c-1.24 0-2.457 0.036-3.675 0.093h-0.003c-0.776-0.060-1.588-0.093-2.4-0.093-28.489 0-46.775 12.974-64.457 25.522-12.21 8.66-23.73 16.834-37.306 19.103-6.624 1.1-13.218 1.66-19.59 1.66-11.479 0-20.535-1.778-27.146-3.076-4.018-0.79-7.484-1.468-10.118-1.468-2.752 0-5.734 0.597-7.030 5.042-1.126 3.851-1.941 7.58-2.725 11.188-2.019 9.285-3.453 14.995-7.33 15.592-45.186 7.006-58.118 16.558-61.002 23.336-0.408 0.969-0.641 1.941-0.696 2.902-0.146 2.604 1.691 4.903 4.255 5.323 69.461 11.481 100.609 82.738 101.902 85.764 0.035 0.084 0.074 0.164 0.111 0.248 4.252 8.647 5.084 16.154 2.483 22.306-4.767 11.276-20.313 16.231-30.604 19.508-2.518 0.799-4.905 1.556-6.788 2.302-20.535 8.149-22.244 16.513-21.437 20.776 1.376 7.264 11.047 12.326 18.869 12.326 2.145 0 4.033-0.382 5.621-1.126 9.238-4.343 17.563-6.545 24.746-6.545 9.926 0 14.258 4.187 14.788 4.736-0.253 4.718-0.565 9.647-0.884 14.732-2.069 32.962-4.632 73.919 5.757 97.298 31.139 70.079 97.171 75.523 116.667 75.523 0.499 0 8.547 0.085 8.547 0.085l1.154 0.005c19.541 0 85.718-5.454 116.874-75.571 10.392-23.391 7.821-64.383 5.749-97.32l-0.086-1.432c-0.287-4.587-0.564-9.044-0.796-13.312 0.496-0.509 4.481-4.359 13.48-4.706h0.010c6.838 0.263 14.697 2.451 23.322 6.506 2.528 1.184 5.336 1.435 7.247 1.435 2.918 0 5.878-0.567 8.335-1.597l0.149-0.061c6.977-2.482 11.547-7.39 11.645-12.518 0.091-4.829-3.582-12.090-21.601-19.234-1.868-0.736-4.255-1.498-6.782-2.302-10.301-3.281-25.843-8.232-30.606-19.505-2.604-6.15-1.77-13.652 2.48-22.304 0.038-0.084 0.080-0.164 0.113-0.253 1.293-3.023 32.414-74.26 101.905-85.754 2.566-0.424 4.398-2.721 4.257-5.328-0.058-0.977-0.295-1.961-0.71-2.918-2.866-6.73-15.789-16.269-60.989-23.28-3.692-0.569-5.124-5.399-7.327-15.526-0.801-3.686-1.613-7.307-2.73-11.114-0.963-3.304-3.014-4.85-6.465-4.85h-0.562c-2.395 0-5.8 0.43-10.115 1.28-7.652 1.503-16.232 2.887-27.148 2.887-6.375 0-12.97-0.559-19.599-1.66-13.56-2.27-25.074-10.428-37.261-19.075-17.716-12.577-36-25.55-64.498-25.55v0zM506.559 929.157c-265.315 0-481.157-215.842-481.157-481.157 0-265.302 215.842-481.157 481.157-481.157s481.157 215.854 481.157 481.157c0 265.315-215.842 481.157-481.157 481.157v0zM506.559-57.831c-278.91 0-505.831 226.921-505.831 505.831 0 278.923 226.921 505.831 505.831 505.831 278.923 0 505.831-226.909 505.831-505.831 0-278.91-226.909-505.831-505.831-505.831v0z" />
<glyph unicode="&#xe915;" glyph-name="tumblr" d="M506.559 929.157c-265.327 0-481.181-215.842-481.181-481.144 0-265.315 215.854-481.169 481.181-481.169s481.181 215.854 481.181 481.169c0 265.302-215.854 481.144-481.181 481.144v0zM506.559-57.831c-278.923 0-505.856 226.933-505.856 505.844s226.933 505.819 505.856 505.819c278.923 0 505.856-226.909 505.856-505.819s-226.933-505.844-505.856-505.844v0zM510.038 670.072v-112.245h105.398v-69.731h-105.398v-113.886c0-25.76 1.357-42.292 4.096-49.571 2.714-7.341 7.773-13.164 15.261-17.531 9.771-5.897 20.986-8.834 33.669-8.834 22.479 0 44.859 7.341 67.128 21.948v-70.101c-19.024-8.883-36.173-15.175-51.57-18.765-15.385-3.627-32.028-5.428-49.905-5.428-20.32 0-38.258 2.579-53.828 7.699-15.594 5.169-28.956 12.424-39.924 21.923-11.030 9.5-18.691 19.616-22.947 30.313-4.269 10.659-6.378 26.168-6.378 46.475v155.759h-49.14v62.834c17.531 5.7 32.46 13.843 44.896 24.391 12.411 10.585 22.429 23.293 29.93 38.159 7.55 14.805 12.757 33.706 15.557 56.591h63.155z" />
<glyph unicode="&#xe916;" glyph-name="twitter" d="M512 935.024c-268.55 0-487.024-218.474-487.024-487.024 0-268.538 218.474-487.012 487.024-487.012 268.538 0 486.999 218.474 486.999 487.012 0 268.55-218.462 487.024-486.999 487.024v0zM512-63.988c-282.312 0-512 229.676-512 511.988 0 282.324 229.688 512 512 512s511.975-229.676 511.975-512c0-282.312-229.663-511.988-511.975-511.988v0zM736.78 567.084c-16.546-7.33-34.329-12.288-52.973-14.511 19.069 11.414 33.692 29.471 40.548 51-17.833-10.565-37.538-18.232-58.593-22.341-16.771 17.92-40.773 29.109-67.309 29.109-50.913 0-92.21-41.297-92.21-92.222 0-7.243 0.787-14.261 2.385-21.004-76.638 3.859-144.596 40.535-190.127 96.368-7.942-13.662-12.463-29.496-12.463-46.405 0-31.969 16.284-60.204 41.010-76.763-15.085 0.462-29.334 4.645-41.797 11.514v-1.124c0-44.719 31.806-81.995 74.015-90.437-7.73-2.16-15.86-3.247-24.301-3.247-5.944 0-11.726 0.549-17.346 1.636 11.739-36.639 45.768-63.313 86.153-64.025-31.582-24.751-71.368-39.486-114.551-39.486-7.443 0-14.798 0.412-22.004 1.274 40.823-26.149 89.3-41.422 141.362-41.422 169.697 0 262.431 140.513 262.431 262.406 0 4.009-0.075 8.005-0.25 11.938 18.032 13.012 33.705 29.259 46.018 47.741z" />
<glyph unicode="&#xe917;" glyph-name="vimeo" horiz-adv-x="1012" d="M505.979 931.871c-265.315 0-481.157-215.904-481.157-481.157 0-265.376 215.842-481.157 481.157-481.157s481.157 215.78 481.157 481.157c0 265.253-215.842 481.157-481.157 481.157v0zM505.979-55.117c-278.91 0-505.831 226.884-505.831 505.831 0 278.824 226.921 505.831 505.831 505.831 278.923 0 505.831-227.007 505.831-505.831 0-278.947-226.909-505.831-505.831-505.831v0zM727.805 542.257c-1.949-43.181-32.188-102.277-90.519-177.041-60.379-78.342-111.542-117.452-153.341-117.452-25.871 0-47.77 23.811-65.684 71.557-11.98 43.798-23.897 87.595-35.84 131.393-13.324 47.746-27.574 71.557-42.835 71.557-3.306 0-14.879-6.909-34.816-20.85l-20.887 26.895c21.862 19.123 43.44 38.369 64.709 57.615 29.153 25.292 51.052 38.493 65.709 39.85 34.446 3.331 55.728-20.233 63.722-70.57 8.537-54.531 14.558-88.335 17.877-101.536 9.956-45.155 20.887-67.609 32.854-67.609 9.253 0 23.207 14.558 41.799 43.674 18.592 29.24 28.524 51.447 29.856 66.745 2.653 25.168-7.279 37.752-29.856 37.752-10.61 0-21.566-2.221-32.854-7.032 21.936 71.063 63.747 105.484 125.446 103.51 45.759-1.234 67.337-30.843 64.66-88.459z" />
<glyph unicode="&#xe918;" glyph-name="youtube" d="M506.547 929.157c-265.302 0-481.144-215.842-481.144-481.144s215.842-481.157 481.144-481.157c265.315 0 481.169 215.854 481.169 481.157s-215.854 481.144-481.169 481.144v0zM506.547-57.819c-278.91 0-505.819 226.921-505.819 505.831s226.909 505.819 505.819 505.819c278.935 0 505.844-226.909 505.844-505.819s-226.909-505.831-505.844-505.831v0zM728.619 368.609v158.806c0 0 0 76.541-76.541 76.541h-291.1c0 0-76.504 0-76.504-76.541v-158.806c0 0 0-76.541 76.504-76.541h291.1c0 0 76.541 0 76.541 76.541zM592.797 447.79l-145.408-85.399v170.823l145.408-85.424z" />
<glyph unicode="&#xf100;" glyph-name="user-icon" d="M512 448c-140.801 0-256 115.199-256 256s115.199 256 256 256 256-115.199 256-256-115.199-256-256-256zM512 320c172.801 0 512-83.199 512-256v-128h-1024v128c0 172.801 339.2 256 512 256z" />
</font>
</defs>
</svg>
